<?xml version="1.0" standalone="no"?>
<!DOCTYPE svg PUBLIC "-//W3C//DTD SVG 1.1//EN" "http://www.w3.org/Graphics/SVG/1.1/DTD/svg11.dtd" >
<svg>
<metadata>
Created by FontForge 20120731 at Thu May  5 13:57:48 2016
 By ,,,
Digitized data (C) 2004 Agfa Monotype Corporation. Neo Sans(TM) is a trademark of Agfa Monotype Corporation and may be registered in certain jurisdictions.  All rights reserved. Neo Sans is designed by Sebastian Lester.
</metadata>
<defs>
<font id="NeoSansBoldTR" horiz-adv-x="645" >
  <font-face 
    font-family="Neo Sans  TR"
    font-weight="700"
    font-stretch="normal"
    units-per-em="1000"
    panose-1="2 0 8 3 5 0 0 2 0 4"
    ascent="800"
    descent="-200"
    x-height="573"
    cap-height="743"
    bbox="-93 -216 1155 1012"
    underline-thickness="80"
    underline-position="1"
    unicode-range="U+0020-2212"
  />
<missing-glyph horiz-adv-x="500" 
 />
    <glyph glyph-name=".notdef" horiz-adv-x="500" 
 />
    <glyph glyph-name=".null" horiz-adv-x="0" 
 />
    <glyph glyph-name="nonmarkingreturn" horiz-adv-x="333" 
 />
    <glyph glyph-name="space" unicode=" " horiz-adv-x="260" 
 />
    <glyph glyph-name="exclam" unicode="!" horiz-adv-x="273" 
d="M220 748v-1l-20 -499q0 -8 -6 -14.5t-14 -6.5h-85q-8 0 -15 6.5t-7 14.5l-20 499v1q0 8 6.5 13.5t15.5 5.5h125q8 0 14 -5.5t6 -13.5zM215 146v-126q0 -8 -5.5 -14t-13.5 -6h-118q-8 0 -14 6t-6 14v126q0 8 6 13.5t14 5.5h118q19 0 19 -19z" />
    <glyph glyph-name="quotedbl" unicode="&#x22;" horiz-adv-x="472" 
d="M449 756l-2 -8l-75 -219q-7 -19 -19 -19h-101q-9 0 -9 10v4q0 4 1 5l54 219q4 19 20 19h119q12 0 12 -11zM230 756l-2 -8l-75 -219q-7 -19 -19 -19h-101q-9 0 -9 10v4q0 4 1 5l54 219q4 19 20 19h119q12 0 12 -11z" />
    <glyph glyph-name="numbersign" unicode="#" horiz-adv-x="699" 
d="M651 539v-2l-12 -76q-2 -11 -15 -11h-85l-15 -161h84q6 0 12 -4t6 -10v-2l-11 -71q-1 -5 -6 -10t-10 -5h-84l-14 -168q-2 -19 -18 -19h-102q-16 0 -16 17v2l14 168h-113l-15 -168q-2 -19 -18 -19h-103q-7 0 -11.5 5t-4.5 12v2l14 168h-85q-14 0 -14 13v2l12 75
q1 12 14 12h83l14 161h-85q-14 0 -14 12v2l12 77q2 11 16 11h80l15 172q2 19 19 19h103q15 0 15 -17v-2l-15 -172h113l16 172q2 19 19 19h102q15 0 15 -17v-2l-16 -172h87q17 0 17 -13zM403 450h-113l-15 -161h113z" />
    <glyph glyph-name="dollar" unicode="$" 
d="M575 210q0 -74 -45 -132.5t-141 -78.5v-94q0 -8 -6 -14t-14 -6h-110q-8 0 -14 6t-6 14v89q-67 4 -127 19q-19 5 -19 20v98q0 19 19 19h2q98 -12 189 -12q50 0 70 16.5t20 53.5q0 22 -13.5 37.5t-52.5 38.5l-138 82q-66 40 -92.5 86t-26.5 105q0 160 169 188v86q0 8 6 14
t14 6h110q8 0 14 -6t6 -14v-82q98 -7 146 -19q19 -5 19 -19v-99q0 -18 -18 -18h-2q-99 11 -212 11q-42 0 -59.5 -12.5t-17.5 -40.5q0 -19 14 -34t53 -36l127 -69q74 -40 105 -89.5t31 -113.5z" />
    <glyph glyph-name="percent" unicode="%" horiz-adv-x="839" 
d="M801 241v-75q0 -172 -147 -172q-148 0 -148 172v75q0 172 148 172q147 0 147 -172zM698 735q0 -8 -4 -12l-416 -702q-11 -21 -23 -21h-103q-11 0 -11 11q0 4 3 10l416 702q12 20 25 20h103q10 0 10 -8zM334 577v-75q0 -172 -148 -172t-148 172v75q0 171 148 171t148 -171
zM701 166v75q0 48 -11.5 66.5t-35.5 18.5t-36 -18.5t-12 -66.5v-75q0 -48 12 -66.5t36 -18.5t35.5 18.5t11.5 66.5zM233 502v75q0 48 -11.5 66.5t-35.5 18.5t-36 -18.5t-12 -66.5v-75q0 -48 12 -67t36 -19q23 0 35 19t12 67z" />
    <glyph glyph-name="ampersand" unicode="&#x26;" horiz-adv-x="732" 
d="M714 12q0 -12 -12 -12h-142q-9 0 -17 8l-30 32q-81 -49 -186 -49q-126 0 -201.5 47.5t-75.5 148.5v9q0 62 33.5 107.5t99.5 86.5l-8 9q-51 59 -70 97t-19 74v9q0 78 59.5 125.5t177.5 47.5q109 0 168.5 -47.5t59.5 -125.5v-9q0 -63 -34 -105t-98 -82l-31 -20l130 -137
q17 42 17 124v8q0 20 18 20h93q8 0 13.5 -6t5.5 -14v-8q0 -129 -58 -218l102 -108q5 -5 5 -12zM402 570v9q0 28 -20 44.5t-59 16.5q-43 0 -66 -16.5t-23 -44.5v-9q0 -24 10 -44.5t46 -58.5l8 -8l26 16q46 28 62 47.5t16 47.5zM427 130l-153 163q-34 -20 -46 -42.5t-12 -54.5
v-9q0 -39 29.5 -59.5t81.5 -20.5q59 0 100 23z" />
    <glyph glyph-name="quotesingle" unicode="'" horiz-adv-x="253" 
d="M230 756l-2 -8l-75 -219q-7 -19 -19 -19h-101q-9 0 -9 10v4q0 4 1 5l54 219q4 19 20 19h119q12 0 12 -11z" />
    <glyph glyph-name="parenleft" unicode="(" horiz-adv-x="361" 
d="M328 -184q0 -10 -12 -10h-100q-24 0 -34 14q-66 94 -98.5 199t-32.5 246v18q0 142 32.5 247t98.5 199q10 14 34 14h100q12 0 12 -10q0 -4 -5 -16q-108 -195 -108 -434v-18q0 -236 108 -433q5 -12 5 -16z" />
    <glyph glyph-name="parenright" unicode=")" horiz-adv-x="361" 
d="M310 283v-18q0 -141 -32.5 -246t-98.5 -199q-10 -14 -34 -14h-100q-12 0 -12 10q0 4 5 16q108 197 108 433v18q0 239 -108 434q-5 12 -5 16q0 10 12 10h100q24 0 34 -14q66 -94 98.5 -199t32.5 -247z" />
    <glyph glyph-name="asterisk" unicode="*" horiz-adv-x="479" 
d="M445 570q0 -10 -15 -15l-115 -34l72 -98q5 -8 5 -14q0 -7 -6 -12l-52 -38q-4 -3 -9 -3q-9 0 -16 10l-69 100l-69 -100q-7 -10 -16 -10q-5 0 -9 3l-53 38q-7 4 -7 12q0 4 6 14l72 98l-114 34q-16 4 -16 16q0 4 1 5l20 63q3 10 13 10q3 0 11 -2l115 -38l-3 119q0 21 16 21
h66q15 0 15 -21l-1 -119l113 38q8 2 11 2q10 0 13 -10l20 -63q1 -1 1 -6z" />
    <glyph glyph-name="plus" unicode="+" 
d="M573 436v-90q0 -16 -20 -16h-170v-169q0 -20 -16 -20h-90q-16 0 -16 20v169h-169q-20 0 -20 16v90q0 16 20 16h169v170q0 20 16 20h90q16 0 16 -20v-170h170q20 0 20 -16z" />
    <glyph glyph-name="comma" unicode="," horiz-adv-x="274" 
d="M231 153q0 -1 -2 -7l-96 -224q-9 -20 -19 -20h-88q-7 0 -12 4.5t-5 10.5q0 1 0.5 2t0.5 3l64 224q4 19 20 19h122q15 0 15 -12z" />
    <glyph glyph-name="hyphen" unicode="-" horiz-adv-x="302" 
d="M268 344v-80q0 -18 -20 -18h-194q-20 0 -20 18v80q0 8 6 13.5t14 5.5h194q8 0 14 -5.5t6 -13.5z" />
    <glyph glyph-name="period" unicode="." horiz-adv-x="274" 
d="M216 146v-126q0 -8 -6 -14t-14 -6h-117q-8 0 -14.5 6t-6.5 14v126q0 8 6.5 13.5t14.5 5.5h117q8 0 14 -5.5t6 -13.5z" />
    <glyph glyph-name="slash" unicode="/" horiz-adv-x="405" 
d="M391 727l-1 -2v-2l-211 -702q-6 -21 -20 -21h-127q-8 0 -13.5 5t-5.5 12q0 1 0.5 2t0.5 2l212 702q5 20 20 20h127q7 0 12.5 -4.5t5.5 -11.5z" />
    <glyph glyph-name="zero" unicode="0" 
d="M592 414v-86q0 -337 -270 -337q-132 0 -200.5 81t-68.5 256v86q0 175 68.5 256.5t200.5 81.5q270 0 270 -338zM421 328v86q0 110 -26 153t-73 43t-72.5 -43t-25.5 -153v-86q0 -110 25.5 -152.5t72.5 -42.5t73 42.5t26 152.5z" />
    <glyph glyph-name="one" unicode="1" 
d="M424 724v-704q0 -8 -5.5 -14t-13.5 -6h-131q-8 0 -14 6t-6 14v552l-112 -46q-8 -3 -12 -3q-11 0 -11 13v114q0 10 10 14l163 75q8 4 23 4h90q19 0 19 -19z" />
    <glyph glyph-name="two" unicode="2" 
d="M570 561q0 -110 -115 -188l-85 -57q-75 -50 -110 -86.5t-35 -83.5v-4h316q8 0 14 -5.5t6 -13.5v-103q0 -8 -6 -14t-14 -6h-445q-8 0 -14 6t-6 14v102q0 79 37.5 144.5t98.5 109.5l92 65q71 49 86.5 65.5t15.5 50.5q0 33 -23 46.5t-83 13.5q-84 0 -197 -13h-2
q-18 0 -18 20v78q0 14 19 19q102 31 213 31q136 0 195.5 -46.5t59.5 -144.5z" />
    <glyph glyph-name="three" unicode="3" 
d="M566 230v-18q0 -111 -70 -166t-191 -55q-116 0 -207 28q-19 5 -19 19v80q0 18 18 18h2q91 -9 199 -9q53 0 76 21t23 64v18q0 86 -81 86h-176q-8 0 -13.5 6t-5.5 14v85q0 19 19 19h172q45 0 65 24.5t20 62.5v14q0 37 -22 56t-77 19q-81 0 -197 -12h-2q-18 0 -18 18v80
q0 14 20 19q101 31 204 31q127 0 194 -48.5t67 -156.5v-14q0 -44 -24.5 -87t-64.5 -66q42 -22 65.5 -61.5t23.5 -88.5z" />
    <glyph glyph-name="four" unicode="4" 
d="M606 279v-92q0 -8 -6 -14t-14 -6h-66v-147q0 -8 -5.5 -14t-13.5 -6h-133q-8 0 -13.5 6t-5.5 14v147h-289q-8 0 -14 6t-6 14v97q0 14 11 31l316 414q11 14 26 14h107q8 0 14 -6t6 -14v-424h66q8 0 14 -6t6 -14zM354 299v220q0 6 -4 6q-1 0 -3 -2l-157 -214q-2 -2 -2 -6
t6 -4h160z" />
    <glyph glyph-name="five" unicode="5" 
d="M566 244v-8q0 -119 -69 -182t-201 -63q-107 0 -197 29q-20 5 -20 22v79q0 18 18 18h2q94 -12 180 -12q67 0 91 26.5t24 82.5v8q0 51 -30 71.5t-112 20.5h-155q-6 0 -10 4.5t-4 9.5v1l31 373q2 19 20 19h389q8 0 14 -5.5t6 -13.5v-100q0 -8 -6 -13.5t-14 -5.5h-272
l-12 -138h29q142 0 220 -50.5t78 -172.5z" />
    <glyph glyph-name="six" unicode="6" 
d="M589 252v-7q0 -117 -68.5 -185.5t-195.5 -68.5q-125 0 -196.5 74.5t-71.5 219.5v153q0 314 278 314q122 0 197 -20q22 -4 22 -22v-87q0 -21 -18 -21h-5q-84 14 -182 14q-67 0 -96 -32t-29 -114v-7q65 12 118 12q111 0 179 -53t68 -170zM422 245v7q0 104 -107 104
q-45 0 -91 -10v-61q0 -95 25.5 -129.5t75.5 -34.5q46 0 71.5 27.5t25.5 96.5z" />
    <glyph glyph-name="seven" unicode="7" 
d="M567 710v-73q0 -12 -16 -46l-263 -572q-9 -19 -25 -19h-137q-18 0 -18 12q0 5 3 11l272 571q1 1 1 5q0 6 -7 6h-277q-8 0 -14.5 5.5t-6.5 13.5v100q0 8 6.5 13.5t14.5 5.5h433q14 0 24 -9.5t10 -23.5z" />
    <glyph glyph-name="eight" unicode="8" 
d="M593 226v-13q0 -106 -72.5 -164t-192.5 -58h-11q-120 0 -192.5 58t-72.5 164v13q0 98 85 160q-81 56 -81 150v11q0 102 69.5 153.5t191.5 51.5h11q122 0 192 -51.5t70 -153.5v-11q0 -95 -82 -150q85 -62 85 -160zM429 531v5q0 91 -101 91h-11q-101 0 -101 -91v-5
q0 -40 22.5 -63.5t68.5 -23.5h31q46 0 68.5 23.5t22.5 63.5zM428 218v10q0 39 -22 67.5t-68 28.5h-31q-46 0 -68 -28.5t-22 -67.5v-10q0 -46 25.5 -73.5t74.5 -27.5h11q49 0 74.5 27.5t25.5 73.5z" />
    <glyph glyph-name="nine" unicode="9" 
d="M589 458v-153q0 -314 -278 -314q-122 0 -197 20q-22 6 -22 22v87q0 21 18 21h5q84 -14 182 -14q67 0 96 32t29 114v7q-65 -12 -118 -12q-111 0 -179 53.5t-68 169.5v7q0 116 68.5 185t195.5 69q125 0 196.5 -74.5t71.5 -219.5zM422 397v61q0 95 -25.5 129.5t-75.5 34.5
q-46 0 -71.5 -27.5t-25.5 -96.5v-7q0 -104 107 -104q11 0 91 10z" />
    <glyph glyph-name="colon" unicode=":" horiz-adv-x="275" 
d="M216 528v-126q0 -8 -6 -13.5t-14 -5.5h-117q-8 0 -14.5 5.5t-6.5 13.5v126q0 8 6.5 14t14.5 6h117q8 0 14 -6t6 -14zM216 146v-126q0 -8 -6 -14t-14 -6h-117q-8 0 -14.5 6t-6.5 14v126q0 8 6.5 13.5t14.5 5.5h117q8 0 14 -5.5t6 -13.5z" />
    <glyph glyph-name="semicolon" unicode=";" horiz-adv-x="275" 
d="M216 528v-126q0 -8 -6.5 -13.5t-14.5 -5.5h-117q-8 0 -14 5.5t-6 13.5v126q0 8 6 14t14 6h117q8 0 14.5 -6t6.5 -14zM216 151q0 -1 -2 -7l-95 -224q-9 -20 -20 -20h-88q-7 0 -12 4.5t-5 10.5q0 1 0.5 2t0.5 3l64 224q4 19 20 19h122q15 0 15 -12z" />
    <glyph glyph-name="less" unicode="&#x3c;" 
d="M536 150q0 -13 -12 -13h-139q-13 0 -24 11l-233 207q-20 17 -20 36t20 36l233 207q11 11 24 11h139q12 0 12 -13q0 -6 -6 -12l-259 -229l259 -229q6 -6 6 -12z" />
    <glyph glyph-name="equal" unicode="=" 
d="M552 564v-90q0 -16 -20 -16h-419q-20 0 -20 16v90q0 16 20 16h419q20 0 20 -16zM552 308v-90q0 -16 -20 -16h-419q-20 0 -20 16v90q0 16 20 16h419q20 0 20 -16z" />
    <glyph glyph-name="greater" unicode="&#x3e;" 
d="M536 391q0 -19 -21 -36l-232 -207q-11 -11 -24 -11h-139q-12 0 -12 13q0 6 6 12l259 229l-259 229q-6 6 -6 12q0 13 12 13h139q13 0 24 -11l232 -207q21 -17 21 -36z" />
    <glyph glyph-name="question" unicode="?" horiz-adv-x="479" 
d="M431 597v-17q0 -33 -17 -67.5t-60 -89.5l-45 -58q-6 -8 -14 -18t-11.5 -15t-9 -12t-7.5 -10.5t-5 -8.5l-4.5 -7.5t-2.5 -6t-1.5 -6.5t-0.5 -7v-28q0 -8 -7.5 -13.5t-16.5 -5.5h-100q-8 0 -13.5 6t-5.5 14v27q0 44 7.5 70t34.5 62l48 63q46 61 46 101v10q0 37 -49 37
q-68 0 -143 -11h-3q-17 0 -17 21v89q0 21 18 26q69 21 160 21q109 0 164 -38.5t55 -127.5zM262 145v-126q0 -8 -6 -13.5t-14 -5.5h-118q-8 0 -14 5.5t-6 13.5v126q0 8 6 14t14 6h118q8 0 14 -6t6 -14z" />
    <glyph glyph-name="at" unicode="@" horiz-adv-x="774" 
d="M741 361q0 -170 -97.5 -242.5t-273.5 -72.5q-79 0 -126.5 37.5t-47.5 107.5q0 3 0.5 8.5t0.5 9.5l9 116q7 85 59 126t139 41q61 0 133 -15q24 -5 24 -27v-4l-28 -299q127 21 127 214q0 97 -60.5 163t-178.5 66q-131 0 -204.5 -63t-84.5 -183l-15 -160q-2 -24 -2 -34
q0 -90 63 -144t186 -54q33 0 83 4t64 4h5q8 0 8 -10v-39q0 -11 -12 -13q-88 -10 -148 -10q-148 0 -239 69t-91 195v17q0 10 1 15l16 165q14 145 111 228.5t260 83.5q153 0 236 -87.5t83 -212.5zM419 142l23 250q-32 5 -51 5q-36 0 -51 -16.5t-20 -59.5l-11 -111q-1 -3 -1 -9
v-8q0 -29 15.5 -40.5t53.5 -11.5h21q14 0 21 1z" />
    <glyph glyph-name="A" unicode="A" horiz-adv-x="669" 
d="M650 16q0 -16 -17 -16h-140q-15 0 -20 18l-36 164h-205l-36 -164q-5 -18 -20 -18h-140q-17 0 -17 16l1 2v3l149 620q16 65 59.5 88t106.5 23t106 -23t59 -88l149 -620q0 -2 1 -3v-2zM409 319l-61 276l-1.5 6t-1.5 4t-2.5 3t-3 1.5t-4.5 0.5q-11 0 -14 -15l-61 -276h149z
" />
    <glyph glyph-name="B" unicode="B" horiz-adv-x="669" 
d="M623 230v-15q0 -224 -315 -224q-124 0 -183 12q-31 5 -43 18.5t-12 46.5v608q0 33 11.5 46.5t41.5 18.5q75 11 179 11q152 0 234 -48t82 -161v-18q0 -49 -22 -88t-62 -59q41 -21 65 -59.5t24 -88.5zM457 219v11q0 89 -106 89h-112v-187h17q8 0 24.5 -0.5t23.5 -0.5h17
q74 0 105 22t31 66zM453 517v15q0 42 -31 61t-107 19h-39q-8 0 -21 -0.5t-16 -0.5v-173h112q102 0 102 79z" />
    <glyph glyph-name="C" unicode="C" horiz-adv-x="561" 
d="M520 128v-97q0 -11 -5 -15.5t-17 -7.5q-51 -17 -149 -17q-60 0 -111 17t-93.5 52.5t-67 99t-24.5 149.5v126q0 86 24.5 149.5t67 99t93.5 52t111 16.5q98 0 149 -17q13 -3 17.5 -7.5t4.5 -14.5v-97q0 -20 -19 -20h-3q-104 8 -148 8q-124 0 -124 -169v-126
q0 -169 124 -169q44 0 148 8h3q19 0 19 -20z" />
    <glyph glyph-name="D" unicode="D" horiz-adv-x="682" 
d="M631 436v-129q0 -156 -83.5 -236t-235.5 -80q-140 0 -213 15q-29 5 -29 35v661q0 30 29 35q73 15 213 15q152 0 235.5 -80t83.5 -236zM460 307v129q0 96 -37.5 133.5t-110.5 37.5q-41 0 -71 -2v-467q30 -2 71 -2q73 0 110.5 37.5t37.5 133.5z" />
    <glyph glyph-name="E" unicode="E" horiz-adv-x="580" 
d="M524 118v-93q0 -18 -20 -21q-91 -13 -194 -13q-42 0 -75 5t-65.5 19t-54 37t-35 62t-13.5 92v332q0 65 19 109t55.5 66t76 30.5t93.5 8.5q105 0 193 -13q20 -3 20 -20v-93q0 -8 -6 -14t-14 -6h-203q-36 0 -50 -14.5t-14 -53.5v-91h259q8 0 14 -6t6 -14v-95q0 -8 -6 -14
t-14 -6h-259v-106q0 -39 14 -53.5t50 -14.5h203q8 0 14 -6t6 -14z" />
    <glyph glyph-name="F" unicode="F" horiz-adv-x="581" 
d="M524 718v-93q0 -8 -6 -14t-14 -6h-203q-36 0 -50 -14.5t-14 -53.5v-90h259q8 0 14 -6t6 -14v-95q0 -8 -6 -14t-14 -6h-259v-292q0 -8 -6 -14t-14 -6h-130q-8 0 -14 6t-6 14v517q0 65 19 109t55.5 66t76 30.5t93.5 8.5q105 0 193 -13q20 -3 20 -20z" />
    <glyph glyph-name="G" unicode="G" 
d="M580 714v-106q0 -13 -15 -13h-3l-90 5q-54 3 -118 3q-65 0 -98 -38t-33 -132v-125q0 -94 33 -132t79 -38q41 0 77 3v230q0 8 5.5 14t13.5 6h128q8 0 14 -6t6 -14v-336q0 -18 -20 -23q-105 -21 -224 -21q-37 0 -73.5 8.5t-75.5 31t-68.5 57t-48.5 91.5t-19 130v124
q0 91 26.5 156.5t72 99.5t96 48.5t109.5 14.5q103 0 209 -23q17 -3 17 -15z" />
    <glyph glyph-name="H" unicode="H" horiz-adv-x="729" 
d="M659 724v-704q0 -8 -6 -14t-14 -6h-131q-8 0 -14 6t-6 14v289h-247v-289q0 -8 -6 -14t-14 -6h-131q-8 0 -14 6t-6 14v704q0 8 6 13.5t14 5.5h131q8 0 14 -5.5t6 -13.5v-266h247v266q0 8 6 13.5t14 5.5h131q8 0 14 -5.5t6 -13.5z" />
    <glyph glyph-name="I" unicode="I" horiz-adv-x="311" 
d="M241 724v-704q0 -8 -5.5 -14t-13.5 -6h-134q-18 0 -18 20v704q0 19 18 19h134q19 0 19 -19z" />
    <glyph glyph-name="J" unicode="J" horiz-adv-x="311" 
d="M241 724v-730q0 -173 -179 -173q-28 0 -64 4q-15 1 -15 17v102q0 14 11 14h50q16 0 21 8t5 28v730q0 8 6 13.5t14 5.5h131q8 0 14 -5.5t6 -13.5z" />
    <glyph glyph-name="K" unicode="K" horiz-adv-x="678" 
d="M652 732q0 -6 -5 -14l-238 -338l239 -359q4 -4 4 -11q0 -10 -14 -10h-172q-13 0 -22 14l-203 330v-324q0 -8 -6 -14t-14 -6h-131q-8 0 -14 6t-6 14v704q0 8 6 13.5t14 5.5h131q8 0 14 -5.5t6 -13.5v-318l220 325q8 12 22 12h153q16 0 16 -11z" />
    <glyph glyph-name="L" unicode="L" horiz-adv-x="519" 
d="M497 118v-93q0 -16 -20 -21q-52 -13 -163 -13q-42 0 -75 5t-66 19t-54.5 37t-35 62t-13.5 92v517q0 8 6 14t14 6h131q8 0 14 -6t6 -14v-517q0 -39 14 -53.5t50 -14.5h172q8 0 14 -6t6 -14z" />
    <glyph glyph-name="M" unicode="M" horiz-adv-x="816" 
d="M746 708v-694q0 -14 -17 -14h-132q-7 0 -11.5 6t-4.5 14v417q0 8 -5 8q-4 0 -8 -7l-90 -165q-11 -17 -30 -17h-80q-19 0 -30 17l-90 165q-4 7 -8 7q-5 0 -5 -8v-417q0 -8 -4.5 -14t-11.5 -6h-132q-17 0 -17 14v695q0 16 10 25t26 9h94q30 0 44 -27l153 -285q7 -13 11 -13
q5 0 11 13l153 285q14 27 44 27h94q16 0 26 -9.5t10 -25.5z" />
    <glyph glyph-name="N" unicode="N" horiz-adv-x="729" 
d="M659 724v-686q0 -16 -11.5 -27t-27.5 -11h-98q-34 0 -52 31l-228 394q-5 8 -9 8q-5 0 -5 -8v-405q0 -8 -6 -14t-14 -6h-118q-8 0 -14 6t-6 14v685q0 16 11 27t27 11h101q24 0 42 -31l237 -412q5 -8 8 -8q5 0 5 9v423q0 8 6 13.5t14 5.5h118q8 0 14 -5.5t6 -13.5z" />
    <glyph glyph-name="O" unicode="O" horiz-adv-x="698" 
d="M645 431v-119q0 -165 -81.5 -243t-214.5 -78t-214.5 78t-81.5 243v119q0 165 81.5 243t214.5 78t214.5 -78t81.5 -243zM473 312v119q0 90 -30 130.5t-94 40.5t-93.5 -40.5t-29.5 -130.5v-119q0 -90 29.5 -130.5t93.5 -40.5t94 40.5t30 130.5z" />
    <glyph glyph-name="P" unicode="P" horiz-adv-x="651" 
d="M618 511v-9q0 -67 -25 -116t-69 -75.5t-94 -38.5t-110 -12q-6 0 -81 3v-243q0 -8 -6 -14t-14 -6h-129q-8 0 -14 5.5t-6 13.5v672q0 25 10 34.5t35 13.5q83 13 203 13q61 0 111.5 -11.5t94.5 -38t69 -75t25 -116.5zM448 502v9q0 53 -31.5 76t-96.5 23q-7 0 -41 -1.5
t-40 -1.5v-204q2 0 27.5 -1t37.5 -1h16q66 0 97 25t31 76z" />
    <glyph glyph-name="Q" unicode="Q" horiz-adv-x="698" 
d="M645 431v-119q0 -137 -57.5 -214t-157.5 -99v-20q0 -25 25 -25h90q24 0 24 -16v-82q0 -16 -23 -22q-52 -13 -111 -13q-75 0 -120.5 37t-45.5 120v21q-100 22 -158 98.5t-58 214.5v119q0 165 81.5 243t214.5 78t214.5 -78t81.5 -243zM473 312v119q0 90 -30 130.5t-94 40.5
t-93.5 -40.5t-29.5 -130.5v-119q0 -90 29.5 -130.5t93.5 -40.5t94 40.5t30 130.5z" />
    <glyph glyph-name="R" unicode="R" horiz-adv-x="680" 
d="M644 12q0 -12 -15 -12h-153q-11 0 -20 20l-134 253l-11 -1q-11 0 -36.5 1t-34.5 1v-254q0 -8 -6 -14t-14 -6h-130q-8 0 -14 6t-6 14v671q0 25 10 34.5t35 13.5q75 13 203 13q301 0 301 -234v-13q0 -76 -35 -126.5t-94 -73.5l151 -282q3 -6 3 -11zM449 505v13
q0 89 -131 89q-8 0 -40 -1.5t-38 -1.5v-192q3 0 24.5 -1t32.5 -1h14q77 0 107.5 21.5t30.5 73.5z" />
    <glyph glyph-name="S" unicode="S" horiz-adv-x="588" 
d="M546 210q0 -42 -14.5 -79.5t-45 -69.5t-85.5 -51t-128 -19q-103 0 -189 22q-20 5 -20 20v98q0 19 18 19h3q164 -12 190 -12q50 0 69.5 16.5t19.5 53.5q0 22 -13.5 37.5t-52.5 38.5l-138 82q-65 39 -91.5 86t-26.5 105q0 195 256 195q54 0 118.5 -7t93.5 -15q15 -6 15 -18
v-101q0 -17 -17 -17h-2q-99 11 -212 11q-42 0 -60 -12.5t-18 -40.5q0 -21 13.5 -34.5t53.5 -35.5l128 -69q74 -40 104.5 -89t30.5 -114z" />
    <glyph glyph-name="T" unicode="T" horiz-adv-x="587" 
d="M562 724v-103q0 -8 -6.5 -13.5t-14.5 -5.5h-162v-582q0 -8 -6 -14t-14 -6h-131q-8 0 -14 6t-6 14v582h-163q-8 0 -14 5.5t-6 13.5v103q0 8 6 13.5t14 5.5h496q8 0 14.5 -5.5t6.5 -13.5z" />
    <glyph glyph-name="U" unicode="U" horiz-adv-x="711" 
d="M644 724v-445q0 -83 -22 -141t-63.5 -89t-90.5 -44.5t-113 -13.5t-113 13.5t-90 44.5t-63 89t-22 141v445q0 8 6 13.5t14 5.5h131q8 0 14 -5.5t6 -13.5v-445q0 -78 26 -111.5t91 -33.5q66 0 92 33.5t26 111.5v445q0 8 6 13.5t14 5.5h130q8 0 14.5 -5.5t6.5 -13.5z" />
    <glyph glyph-name="V" unicode="V" horiz-adv-x="686" 
d="M658 727v-1q-1 -2 -1 -4l-149 -620q-16 -65 -59 -88t-106 -23t-106.5 23t-59.5 88l-149 620v2q-1 2 -1 3q0 16 18 16h139q15 0 20 -18l125 -577q3 -15 14 -15t14 15l125 577q5 18 19 18h140q17 0 17 -16z" />
    <glyph glyph-name="W" unicode="W" horiz-adv-x="889" 
d="M872 730v-2l-93 -655q-6 -42 -28 -59t-64 -17h-57q-75 0 -92 68l-79 299q-3 8 -9 8q-4 0 -5 -1t-3 -7l-79 -299q-17 -68 -92 -68h-57q-42 0 -64 17t-28 59l-93 655v2q0 13 16 13h136q15 0 16 -19l57 -536q1 -13 6 -13q4 0 7 13l72 275q14 48 62 48h99q48 0 62 -48
l72 -275q3 -13 7 -13q5 0 6 13l57 536q1 19 16 19h136q16 0 16 -13z" />
    <glyph glyph-name="X" unicode="X" horiz-adv-x="703" 
d="M671 10q0 -10 -13 -10h-159q-16 0 -26 15l-130 211l-117 -206q-12 -20 -25 -20h-148q-15 0 -15 13q0 1 2 7l209 361l-211 343q0 1 -1 3t-1 3q0 13 15 13h161q10 0 25 -19l124 -202l112 202q11 19 25 19h148q15 0 15 -13l-2 -6l-206 -353l215 -351q3 -6 3 -10z" />
    <glyph glyph-name="Y" unicode="Y" horiz-adv-x="647" 
d="M626 728q0 -6 -1 -7l-151 -346q-25 -59 -65 -77v-278q0 -8 -6 -14t-14 -6h-131q-8 0 -14 6t-6 14v278q-41 19 -66 77l-151 346q-1 1 -1 7q0 15 16 15h144q14 0 20 -17l108 -282q6 -15 15 -15t15 15l108 282q6 17 20 17h144q16 0 16 -15z" />
    <glyph glyph-name="Z" unicode="Z" horiz-adv-x="615" 
d="M565 130v-110q0 -8 -6 -14t-14 -6h-454q-41 0 -41 31v80q0 20 15 44l279 422q4 4 4 10q0 8 -11 8h-249q-8 0 -14 5.5t-6 13.5v110q0 8 6 13.5t14 5.5h431q40 0 40 -28q1 -2 1 -7v-61q0 -15 -1 -23q0 -12 -8 -26l-282 -432q-5 -8 -5 -11q0 -7 11 -7h270q20 0 20 -18z" />
    <glyph glyph-name="bracketleft" unicode="[" horiz-adv-x="374" 
d="M344 -87v-87q0 -8 -6 -14t-14 -6h-244q-17 0 -17 19v899q0 19 17 19h243q8 0 14 -6t6 -14v-87q0 -8 -6 -14t-14 -6h-96v-683h97q8 0 14 -6t6 -14z" />
    <glyph glyph-name="backslash" unicode="\" horiz-adv-x="405" 
d="M392 12q0 -7 -5.5 -12t-13.5 -5h-127q-13 0 -19 21l-213 707q0 1 -0.5 2t-0.5 2q0 16 19 16h126q16 0 21 -20l212 -707q0 -1 1 -4z" />
    <glyph glyph-name="bracketright" unicode="]" horiz-adv-x="374" 
d="M311 724v-899q0 -19 -17 -19h-244q-8 0 -14 6t-6 14v87q0 8 6 14t14 6h97v683h-96q-8 0 -14 6t-6 14v87q0 8 6 14t14 6h243q17 0 17 -19z" />
    <glyph glyph-name="asciicircum" unicode="^" 
d="M576 574q0 -9 -12 -9h-130q-16 0 -31 15l-80 89l-80 -89q-15 -15 -31 -15h-130q-12 0 -12 9q0 4 5 12l111 148q8 12 14 15t20 3h206q14 0 20 -3t14 -15l111 -148q5 -8 5 -12z" />
    <glyph glyph-name="underscore" unicode="_" horiz-adv-x="541" 
d="M573 -55v-48q0 -16 -20 -16h-564q-20 0 -20 16v48q0 16 20 16h564q20 0 20 -16z" />
    <glyph glyph-name="grave" unicode="`" horiz-adv-x="443" 
d="M293 637q0 -7 -9 -7h-107q-12 0 -24 12l-122 122q-4 4 -4 8q0 7 11 7h132q15 0 27 -15l92 -117q4 -4 4 -10z" />
    <glyph glyph-name="a" unicode="a" horiz-adv-x="562" 
d="M502 377v-357q0 -8 -6 -14t-14 -6h-112q-8 0 -14 6t-6 14v16q-63 -45 -139 -45q-74 0 -122.5 40.5t-48.5 131.5v9q0 88 58.5 128.5t187.5 40.5h54v36q0 40 -18.5 54.5t-56.5 14.5q-91 0 -136 -5l-30 -2h-5q-18 0 -18 18v81q0 18 19 22q86 21 173 21q234 0 234 -204z
M343 135v110h-57q-50 0 -69 -17.5t-19 -55.5v-9q0 -31 14 -40.5t49 -9.5q38 0 82 22z" />
    <glyph glyph-name="b" unicode="b" horiz-adv-x="597" 
d="M555 325v-78q0 -123 -64.5 -189.5t-186.5 -66.5q-114 0 -213 26q-20 5 -25.5 11t-5.5 18v701q0 8 6.5 14t14.5 6h121q8 0 14 -6t6 -14v-173q51 7 82 7q124 0 187.5 -67.5t63.5 -188.5zM393 247v78q0 58 -19.5 90t-69.5 32q-42 0 -82 -5v-312q38 -6 82 -6q50 0 69.5 32
t19.5 91z" />
    <glyph glyph-name="c" unicode="c" horiz-adv-x="474" 
d="M432 118v-89q0 -11 -4.5 -15.5t-16.5 -7.5q-60 -15 -133 -15q-108 0 -170.5 66t-62.5 187v84q0 121 62.5 187t170.5 66q73 0 133 -15q12 -3 16.5 -7.5t4.5 -15.5v-89q0 -17 -19 -17h-2q-65 7 -122 7q-82 0 -82 -116v-84q0 -116 82 -116q57 0 122 7h2q19 0 19 -17z" />
    <glyph glyph-name="d" unicode="d" horiz-adv-x="597" 
d="M537 747v-701q0 -12 -5.5 -18t-25.5 -11q-99 -26 -213 -26q-122 0 -186.5 66.5t-64.5 189.5v78q0 121 63.5 188.5t187.5 67.5q31 0 82 -7v173q0 8 6 14t14 6h121q8 0 14.5 -6t6.5 -14zM375 130v312q-40 5 -82 5q-50 0 -69.5 -32t-19.5 -90v-78q0 -59 19.5 -91t69.5 -32
q44 0 82 6z" />
    <glyph glyph-name="e" unicode="e" horiz-adv-x="590" 
d="M545 318v-58q0 -24 -21 -24h-319v-2q0 -109 103 -109q72 0 192 9h3q19 0 19 -16v-76q0 -22 -21 -27q-96 -24 -205 -24q-48 0 -90.5 13.5t-80 42t-59 80.5t-21.5 121v70q0 122 67 192.5t186 70.5t183 -72.5t64 -190.5zM387 336v4q0 111 -90 111q-43 0 -67.5 -28.5
t-24.5 -82.5v-4h182z" />
    <glyph glyph-name="f" unicode="f" horiz-adv-x="424" 
d="M394 748v-78q0 -17 -21 -17h-49q-23 0 -28 -8t-5 -39v-33h82q8 0 14 -6t6 -14v-81q0 -8 -6 -14t-14 -6h-82v-432q0 -8 -6 -14t-14 -6h-123q-8 0 -14 6t-6 14v432l-80 13q-21 6 -21 21v66q0 8 6.5 14.5t14.5 6.5h80v32q0 101 40 136t128 35q29 0 79 -8q19 -3 19 -20z" />
    <glyph glyph-name="g" unicode="g" horiz-adv-x="599" 
d="M577 547v-57q0 -10 -4 -14.5t-14 -7.5l-31 -10q22 -35 22 -74v-8q0 -187 -247 -187q-67 0 -104 15q-14 -9 -14 -23q0 -12 6 -18t24 -10l113 -25q137 -30 185.5 -61t48.5 -100v-8q0 -163 -262 -163q-125 0 -189.5 42t-64.5 121v8q0 66 60 112q-25 14 -38 40t-13 53
q0 50 44 85q-46 40 -46 119v8q0 88 61.5 138.5t188.5 50.5h249q11 0 18 -7.5t7 -18.5zM392 376v8q0 34 -19.5 53t-69.5 19q-91 0 -91 -72v-8q0 -70 91 -70q50 0 69.5 17.5t19.5 52.5zM397 -41v8q0 16 -20 27.5t-83 24.5l-74 16q-20 -28 -20 -68v-8q0 -27 22 -39t78 -12
q58 0 77.5 13t19.5 38z" />
    <glyph glyph-name="h" unicode="h" horiz-adv-x="612" 
d="M552 354v-333q0 -8 -6.5 -14.5t-14.5 -6.5h-121q-8 0 -14 6.5t-6 14.5v333q0 54 -14.5 73.5t-59.5 19.5q-35 0 -94 -32v-394q0 -8 -6 -14.5t-14 -6.5h-121q-8 0 -14.5 6.5t-6.5 14.5v726q0 8 6 14t14 6h122q8 0 14 -6t6 -14v-211q70 45 153 45q100 0 138.5 -60t38.5 -167
z" />
    <glyph glyph-name="i" unicode="i" horiz-adv-x="290" 
d="M230 751v-93q0 -8 -6 -14t-14 -6h-130q-8 0 -14 6t-6 14v93q0 8 6 14t14 6h130q8 0 14 -6t6 -14zM226 553v-533q0 -8 -6 -14t-14 -6h-122q-8 0 -14 6t-6 14v533q0 8 6 14t14 6h122q8 0 14 -6t6 -14z" />
    <glyph glyph-name="j" unicode="j" horiz-adv-x="290" 
d="M230 751v-93q0 -8 -6.5 -14t-14.5 -6h-129q-8 0 -14 6t-6 14v93q0 8 6 14t14 6h129q8 0 14.5 -6t6.5 -14zM226 552v-584q0 -95 -40 -133t-118 -38q-42 0 -80 7q-20 3 -20 20v79q0 18 21 18h44q20 0 25.5 9.5t5.5 37.5v584q0 8 5.5 14.5t13.5 6.5h124q8 0 13.5 -6.5
t5.5 -14.5z" />
    <glyph glyph-name="k" unicode="k" horiz-adv-x="588" 
d="M558 562q0 -6 -4 -10l-186 -253l185 -278q2 -2 2 -8q0 -13 -13 -13h-151q-16 0 -25 14l-144 235v-228q0 -8 -6 -14.5t-14 -6.5h-121q-8 0 -14.5 6.5t-6.5 14.5v726q0 8 6.5 14t14.5 6h121q8 0 14 -6t6 -14v-418l152 229q10 15 26 15h143q15 0 15 -11z" />
    <glyph glyph-name="l" unicode="l" horiz-adv-x="282" 
d="M222 747v-726q0 -8 -5.5 -14.5t-13.5 -6.5h-122q-8 0 -14.5 6.5t-6.5 14.5v726q0 8 6.5 14t14.5 6h122q8 0 13.5 -6t5.5 -14z" />
    <glyph glyph-name="m" unicode="m" horiz-adv-x="875" 
d="M815 362v-341q0 -8 -6.5 -14.5t-14.5 -6.5h-121q-8 0 -14 6.5t-6 14.5v341q0 48 -13 65.5t-48 17.5q-40 0 -77 -18q3 -30 3 -65v-341q0 -8 -6 -14.5t-14 -6.5h-121q-8 0 -14.5 6.5t-6.5 14.5v341q0 49 -11.5 66t-46.5 17q-26 0 -76 -26v-398q0 -8 -6 -14.5t-14 -6.5h-121
q-8 0 -14.5 6.5t-6.5 14.5v532q0 8 6 14t14 6h114q8 0 14 -6t6 -14v-22q77 50 148 50q79 0 118 -49q49 27 83.5 38t79.5 11q94 0 133 -56.5t39 -162.5z" />
    <glyph glyph-name="n" unicode="n" horiz-adv-x="612" 
d="M552 354v-333q0 -8 -6.5 -14.5t-14.5 -6.5h-121q-8 0 -14 6.5t-6 14.5v333q0 54 -14.5 73.5t-59.5 19.5q-35 0 -94 -32v-394q0 -8 -6 -14.5t-14 -6.5h-121q-8 0 -14.5 6.5t-6.5 14.5v532q0 8 6 14t14 6h112q8 0 14 -6t6 -14v-24q73 52 163 52q100 0 138.5 -60t38.5 -167z
" />
    <glyph glyph-name="o" unicode="o" horiz-adv-x="589" 
d="M545 321v-70q0 -121 -65 -190.5t-185 -69.5t-185.5 69.5t-65.5 190.5v70q0 121 65.5 190.5t185.5 69.5t185 -69.5t65 -190.5zM384 251v70q0 122 -89 122q-90 0 -90 -122v-70q0 -123 90 -123q89 0 89 123z" />
    <glyph glyph-name="p" unicode="p" horiz-adv-x="597" 
d="M555 325v-78q0 -121 -63.5 -188.5t-187.5 -67.5q-31 0 -82 7v-173q0 -8 -6 -14t-14 -6h-121q-8 0 -14.5 6t-6.5 14v701q0 12 5.5 18t25.5 11q99 26 213 26q122 0 186.5 -66.5t64.5 -189.5zM393 247v78q0 59 -19.5 90.5t-69.5 31.5t-82 -5v-312q48 -6 82 -6q89 0 89 123z
" />
    <glyph glyph-name="q" unicode="q" horiz-adv-x="597" 
d="M537 526v-701q0 -8 -6.5 -14t-14.5 -6h-121q-8 0 -14 6t-6 14v173q-51 -7 -82 -7q-124 0 -187.5 67.5t-63.5 188.5v78q0 123 64.5 189.5t186.5 66.5q114 0 213 -26q20 -5 25.5 -11t5.5 -18zM375 130v312q-32 5 -82 5t-69.5 -31.5t-19.5 -90.5v-78q0 -123 89 -123
q34 0 82 6z" />
    <glyph glyph-name="r" unicode="r" horiz-adv-x="396" 
d="M374 561v-95q0 -7 -4.5 -13t-10.5 -6h-8q-64 0 -129 -35v-391q0 -8 -6 -14.5t-14 -6.5h-121q-8 0 -14.5 6.5t-6.5 14.5v532q0 8 6 14t14 6h119q8 0 14 -6t6 -14v-20q57 48 135 48q8 0 14 -6t6 -14z" />
    <glyph glyph-name="s" unicode="s" horiz-adv-x="503" 
d="M461 159q0 -74 -54.5 -121t-159.5 -47q-96 0 -182 22q-19 4 -19 23v81q0 19 19 19h4q93 -14 170 -14q35 0 47 9t12 30t-37 42l-130 75q-89 51 -89 148q0 155 205 155q88 0 178 -23q19 -4 19 -23v-81q0 -19 -17 -19h-3q-75 13 -166 13q-30 0 -41.5 -6t-11.5 -23
q0 -16 31 -35l124 -71q101 -59 101 -154z" />
    <glyph glyph-name="t" unicode="t" horiz-adv-x="421" 
d="M390 97v-78q0 -17 -19 -20q-50 -8 -79 -8q-88 0 -128 35.5t-40 135.5v290l-80 13q-21 6 -21 21v66q0 8 6.5 14.5t14.5 6.5h80v82q0 15 20 20l122 21h3q18 0 18 -17v-106h82q8 0 14 -6t6 -14v-81q0 -8 -6 -14t-14 -6h-82v-291q0 -31 5 -39t28 -8h49q21 0 21 -17z" />
    <glyph glyph-name="u" unicode="u" horiz-adv-x="612" 
d="M552 552v-532q0 -8 -6 -14t-14 -6h-112q-8 0 -14 6t-6 14v24q-73 -52 -163 -52q-100 0 -138.5 60.5t-38.5 166.5v333q0 8 6.5 14.5t14.5 6.5h121q8 0 14 -6.5t6 -14.5v-333q0 -54 14.5 -73.5t59.5 -19.5q35 0 94 32v394q0 8 6 14.5t14 6.5h121q8 0 14.5 -6.5t6.5 -14.5z
" />
    <glyph glyph-name="v" unicode="v" horiz-adv-x="585" 
d="M564 556q0 -5 -1 -6l-126 -454q-28 -105 -145 -105q-116 0 -144 105l-125 454q-1 1 -1 6q0 17 16 17h132q16 0 21 -21l86 -392q5 -21 15 -21q12 0 16 21l86 392q5 21 21 21h132q17 0 17 -17z" />
    <glyph glyph-name="w" unicode="w" horiz-adv-x="845" 
d="M816 556v-4l-89 -482q-8 -40 -30.5 -55t-57.5 -15h-61q-66 0 -84 64l-67 261q-2 5 -5 5t-5 -5l-67 -261q-18 -64 -84 -64h-61q-74 0 -88 70l-89 482v4q0 17 15 17h121q18 0 21 -17l59 -380q1 -13 6 -13t8 13l67 264q7 26 19 35.5t37 9.5h82q25 0 37 -9.5t19 -35.5
l67 -264q3 -13 8 -13t6 13l59 380q3 17 21 17h121q15 0 15 -17z" />
    <glyph glyph-name="x" unicode="x" horiz-adv-x="617" 
d="M585 14q0 -5 -4 -9.5t-10 -4.5h-151q-13 0 -26 21l-99 155l-93 -156q-12 -20 -26 -20h-134q-11 0 -11 12q0 4 2 8l175 278l-170 254q0 1 -1 3t-1 3q0 6 4.5 10.5t10.5 4.5h149q11 0 26 -21l89 -138l82 138q13 21 26 21h134q12 0 12 -13q0 -4 -2 -8l-165 -262l181 -269
q2 -6 2 -7z" />
    <glyph glyph-name="y" unicode="y" horiz-adv-x="592" 
d="M570 555q0 -1 -0.5 -2t-0.5 -3l-168 -589q-26 -89 -70 -126t-149 -37q-73 0 -121 16q-21 8 -21 18v81q0 8 6 13.5t14 5.5h2q85 -8 125 -8q28 0 42.5 11.5t23.5 40.5l9 31h-15q-22 0 -35.5 4.5t-30 26t-27.5 62.5l-132 450q-1 2 -1 7q0 16 20 16h133q14 0 19 -19l90 -376
q4 -19 12 -19h9l93 395q5 19 21 19h133q19 0 19 -18z" />
    <glyph glyph-name="z" unicode="z" horiz-adv-x="515" 
d="M472 120v-100q0 -8 -6 -14t-14 -6h-375q-14 0 -24 9.5t-10 23.5v64q0 19 14 38l217 296q3 5 3 7q0 5 -7 5h-201q-17 0 -17 16v94q0 8 6 14t14 6h365q14 0 23.5 -10t9.5 -24v-74q0 -19 -11 -35l-207 -283q-3 -5 -3 -7q0 -4 7 -4h198q18 0 18 -16z" />
    <glyph glyph-name="braceleft" unicode="{" horiz-adv-x="407" 
d="M377 -87v-87q0 -8 -6 -14t-14 -6h-58q-112 0 -157 39.5t-45 145.5v131q0 66 -57 103v95q56 36 56 103v135q0 106 45 145.5t157 39.5h58q8 0 14 -6t6 -14v-87q0 -8 -6 -14t-14 -6h-58q-24 0 -31 -10.5t-7 -47.5v-135q0 -107 -83 -150q83 -43 83 -151v-131q0 -36 7.5 -47
t31.5 -11h58q8 0 14 -6t6 -14z" />
    <glyph glyph-name="bar" unicode="|" horiz-adv-x="290" 
d="M227 723v-896q0 -8 -6 -14.5t-14 -6.5h-123q-8 0 -14.5 6.5t-6.5 14.5v896q0 8 6.5 14t14.5 6h123q8 0 14 -6t6 -14z" />
    <glyph glyph-name="braceright" unicode="}" horiz-adv-x="407" 
d="M367 320v-95q-57 -37 -57 -103v-131q0 -106 -44.5 -145.5t-157.5 -39.5h-58q-8 0 -14 6t-6 14v87q0 8 6 14t14 6h58q24 0 31.5 11t7.5 47v131q0 108 83 151q-83 43 -83 150v135q0 37 -7 47.5t-31 10.5h-58q-8 0 -14 6t-6 14v87q0 8 6 14t14 6h58q113 0 157.5 -39.5
t44.5 -145.5v-135q0 -67 56 -103z" />
    <glyph glyph-name="asciitilde" unicode="~" 
d="M576 505v-25q0 -78 -35 -114.5t-108 -36.5q-47 0 -91 29l-71 43q-22 13 -43 13q-31 0 -31 -40v-18q0 -20 -18 -20h-89q-20 0 -20 20v18q0 85 37 121.5t106 36.5q46 0 73 -17l90 -54q24 -14 43 -14q16 0 22.5 7t6.5 26v25q0 20 19 20h89q20 0 20 -20z" />
    <glyph glyph-name="nbspace" unicode="&#xa0;" 
 />
    <glyph glyph-name="exclamdown" unicode="&#xa1;" horiz-adv-x="273" 
d="M215 553v-126q0 -8 -6 -13.5t-14 -5.5h-118q-19 0 -19 19v126q0 8 5.5 14t13.5 6h118q8 0 14 -6t6 -14zM220 -174v-1q0 -8 -6.5 -13.5t-15.5 -5.5h-125q-8 0 -14 5.5t-6 13.5v1l20 499q2 21 20 21h85q8 0 15 -6.5t7 -14.5z" />
    <glyph glyph-name="cent" unicode="&#xa2;" 
d="M516 118v-89q0 -11 -4.5 -15.5t-16.5 -7.5q-35 -9 -79 -13v-73q0 -8 -6 -14t-14 -6h-101q-8 0 -14 6t-6 14v84q-70 24 -108 85t-38 155v84q0 94 38 155t108 85v82q0 8 6 14t14 6h101q8 0 14 -6t6 -14v-71q44 -4 79 -13q12 -3 16.5 -7.5t4.5 -15.5v-89q0 -17 -19 -17h-2
q-65 7 -122 7q-82 0 -82 -116v-84q0 -116 82 -116q57 0 122 7h2q19 0 19 -17z" />
    <glyph glyph-name="sterling" unicode="&#xa3;" 
d="M577 713v-99q0 -18 -16 -18h-3q-103 12 -165 12q-51 0 -71 -16t-20 -63v-84h169q8 0 14 -5.5t6 -13.5v-97q0 -19 -19 -19h-170v-100q0 -41 -20 -76h274q20 0 20 -18v-97q0 -8 -6 -13.5t-14 -5.5h-442q-19 0 -19 24v70q0 10 3 14l6 10q33 42 33 92v100h-50q-19 0 -19 19
v97q0 8 6 13.5t14 5.5h49v83q0 118 59 171t197 53q91 0 165 -19q13 -3 16 -7t3 -13z" />
    <glyph glyph-name="currency" unicode="&#xa4;" 
d="M578 128v-97q0 -11 -5 -15.5t-17 -7.5q-51 -17 -139 -17q-119 0 -203.5 64t-99.5 203h-27q-8 0 -14 6t-6 14v44q0 8 6 14t14 6h24v62h-24q-8 0 -14 6t-6 14v44q0 8 6 14t14 6h27q15 136 100.5 199.5t202.5 63.5q88 0 139 -17q13 -3 17.5 -7.5t4.5 -14.5v-97
q0 -20 -19 -20h-3q-104 8 -138 8q-109 0 -130 -115h213q17 0 17 -15q0 -4 -1 -5l-12 -44q-6 -20 -20 -20h-201v-62h183q14 0 14 -12v-3l-15 -60q-2 -9 -14 -9h-164q21 -118 130 -118q34 0 138 8h3q19 0 19 -20z" />
    <glyph glyph-name="yen" unicode="&#xa5;" 
d="M623 730q0 -5 -2 -9l-111 -224h87q8 0 14 -5.5t6 -13.5v-74q0 -19 -19 -19h-142l-46 -92l-2 -11h189q20 0 20 -18v-75q0 -18 -19 -18h-190v-151q0 -8 -6 -14t-14 -6h-133q-8 0 -13.5 6t-5.5 14v151h-189q-20 0 -20 18v75q0 18 20 18h189l-1 11l-45 92h-143q-8 0 -14 5.5
t-6 13.5v74q0 8 6 13.5t14 5.5h88l-111 224q-2 4 -2 9q0 13 15 13h147q11 0 19 -17l119 -270l120 270q8 17 19 17h147q15 0 15 -13z" />
    <glyph glyph-name="brokenbar" unicode="&#xa6;" horiz-adv-x="290" 
d="M227 708v-345q0 -8 -6 -14.5t-14 -6.5h-123q-8 0 -14.5 6.5t-6.5 14.5v345q0 8 6.5 14t14.5 6h123q8 0 14 -6t6 -14zM227 155v-345q0 -8 -6 -14.5t-14 -6.5h-123q-8 0 -14.5 6.5t-6.5 14.5v345q0 8 6.5 14t14.5 6h123q8 0 14 -6t6 -14z" />
    <glyph glyph-name="section" unicode="&#xa7;" horiz-adv-x="589" 
d="M549 1q0 -41 -14.5 -78t-44.5 -69t-85 -51t-128 -19q-109 0 -195 22q-20 5 -20 20v101q0 8 6 13.5t14 5.5h2q128 -14 187 -14h6q52 1 73 16t21 53q0 21 -15 37t-56 38l-133 73q-73 39 -100 86.5t-27 118.5q0 20 9 51.5t21 51.5q-29 34 -29 95q0 200 255 200
q54 0 118.5 -7t93.5 -15q20 -5 20 -19v-102q0 -14 -13 -14h-1q-144 8 -218 8q-47 0 -65 -10t-18 -41q0 -19 15.5 -33.5t56.5 -36.5l128 -69q75 -40 105.5 -88t30.5 -112q0 -56 -26 -106q26 -42 26 -106zM407 220q0 32 -19 52.5t-77 52.5l-72 39q-43 26 -49 31
q-17 -17 -17 -51q0 -29 15.5 -46.5t70.5 -46.5l70 -37q18 -8 40 -25l26 -19q12 21 12 50z" />
    <glyph glyph-name="dieresis" unicode="&#xa8;" horiz-adv-x="443" 
d="M399 751v-93q0 -8 -7 -14t-15 -6h-94q-8 0 -14.5 6t-6.5 14v93q0 8 6.5 14t14.5 6h94q8 0 15 -6t7 -14zM182 751v-93q0 -8 -6.5 -14t-14.5 -6h-94q-8 0 -15 6t-7 14v93q0 8 7 14t15 6h94q8 0 14.5 -6t6.5 -14z" />
    <glyph glyph-name="copyright" unicode="&#xa9;" horiz-adv-x="750" 
d="M708 374q0 -138 -98 -235t-236 -97t-235 97t-97 235t97 236.5t235 98.5t236 -98.5t98 -236.5zM656 374q0 116 -83 199.5t-199 83.5t-198.5 -83.5t-82.5 -199.5t82.5 -198t198.5 -82t199 82t83 198zM477 245v-62q0 -11 -13 -14q-31 -9 -82 -9q-170 0 -170 189v56
q0 189 170 189q42 0 82 -10q13 -4 13 -12v-63q0 -12 -12 -12h-2q-38 5 -81 5q-67 0 -67 -97v-56q0 -98 67 -98q43 0 81 5h3q11 0 11 -11z" />
    <glyph glyph-name="ordfeminine" unicode="&#xaa;" horiz-adv-x="357" 
d="M320 616v-198q0 -14 -8 -16q-60 -16 -128 -16q-78 0 -114.5 27t-36.5 84v7q0 99 159 99h22v13q0 27 -8.5 36t-33.5 9q-65 0 -100 -5h-1q-13 0 -13 14v50q0 12 14 15q43 15 100 15q72 0 110 -30.5t38 -103.5zM214 464v80q-1 0 -6.5 0.5t-9.5 0.5q-5 0 -6 -1q-58 0 -58 -40
v-7q0 -20 11.5 -28t38.5 -8q6 0 30 3z" />
    <glyph glyph-name="guillemotleft" unicode="&#xab;" horiz-adv-x="718" 
d="M685 74q0 -11 -14 -11h-122q-18 0 -29 12l-160 185q-10 11 -10 26t10 26l160 185q11 12 29 12h122q14 0 14 -11q0 -4 -4 -9l-176 -203l176 -203q4 -5 4 -9zM380 74q0 -11 -14 -11h-121q-19 0 -30 12l-160 185q-10 11 -10 26t10 26l160 185q11 12 30 12h121q14 0 14 -11
q0 -4 -4 -9l-176 -203l176 -203q4 -5 4 -9z" />
    <glyph glyph-name="logicalnot" unicode="&#xac;" 
d="M552 564v-366q0 -8 -5.5 -14t-13.5 -6h-85q-18 0 -18 20v261h-317q-20 0 -20 16v89q0 16 20 16h420q19 0 19 -16z" />
    <glyph glyph-name="registered" unicode="&#xae;" horiz-adv-x="598" 
d="M579 484q0 -116 -82 -197.5t-198 -81.5q-115 0 -197 81.5t-82 197.5t82 197.5t197 81.5q116 0 198 -81.5t82 -197.5zM528 484q0 94 -67 161.5t-162 67.5q-94 0 -161 -67.5t-67 -161.5t67 -161.5t161 -67.5q95 0 162 67.5t67 161.5zM437 330q0 -10 -10 -10h-67q-5 0 -10 8
l-63 111q-1 0 -4 3t-4 3h-26v-114q0 -11 -11 -11h-60q-11 0 -11 11v294q0 16 5.5 22t19.5 8q24 3 40 3l26 1q9 1 23 1q69 0 104.5 -25t35.5 -83v-7q0 -62 -59 -87l69 -121q2 -6 2 -7zM346 545v7q0 39 -54 39h-41v-85h8q4 0 13 -0.5t13 -0.5h7q54 0 54 40z" />
    <glyph glyph-name="macron" unicode="&#xaf;" horiz-adv-x="443" 
d="M404 744v-72q0 -8 -6 -13.5t-14 -5.5h-324q-8 0 -14 5.5t-6 13.5v72q0 8 6 13.5t14 5.5h324q8 0 14 -5.5t6 -13.5z" />
    <glyph glyph-name="degree" unicode="&#xb0;" horiz-adv-x="361" 
d="M334 598q0 -64 -44.5 -109t-108.5 -45q-63 0 -108.5 45.5t-45.5 108.5t45.5 108.5t108.5 45.5q64 0 108.5 -45t44.5 -109zM253 598q0 30 -21.5 51.5t-50.5 21.5t-50.5 -21.5t-21.5 -51.5q0 -29 21 -50.5t51 -21.5t51 21.5t21 50.5z" />
    <glyph glyph-name="plusminus" unicode="&#xb1;" 
d="M558 436v-90q0 -16 -20 -16h-155v-154q0 -20 -16 -20h-90q-16 0 -16 20v154h-154q-20 0 -20 16v90q0 16 20 16h154v155q0 20 16 20h90q16 0 16 -20v-155h155q20 0 20 -16zM558 67v-71q0 -16 -20 -16h-431q-20 0 -20 16v71q0 16 20 16h431q20 0 20 -16z" />
    <glyph glyph-name="twosuperior" unicode="&#xb2;" horiz-adv-x="353" 
d="M315 641q0 -62 -61 -102l-47 -32q-43 -30 -57 -45.5t-14 -33.5v-4h160q14 0 14 -13v-64q0 -13 -14 -13h-244q-14 0 -14 14v50q0 56 24 94.5t71 70.5l55 37q15 11 19.5 18.5t4.5 20.5q0 16 -11.5 21t-46.5 5q-50 0 -96 -6h-2q-13 0 -13 13v48q0 7 14 13q58 18 113 18
q75 0 110 -26t35 -84z" />
    <glyph glyph-name="threesuperior" unicode="&#xb3;" horiz-adv-x="352" 
d="M314 644v-7q0 -58 -48 -89q47 -28 47 -84v-6q0 -60 -39 -92t-111 -32q-75 0 -115 19q-10 4 -10 12v48q0 13 13 13h1q38 -5 84 -5q44 0 60 7t16 30v6q0 24 -8.5 33.5t-32.5 9.5h-96q-14 0 -14 14v52q0 14 14 14h91q46 0 46 34v8q0 22 -14 29t-51 7h-12q-34 0 -80 -6h-1
q-13 0 -13 13v49q0 7 13 13q46 18 109 18q151 0 151 -108z" />
    <glyph glyph-name="acute" unicode="&#xb4;" horiz-adv-x="443" 
d="M416 772q0 -4 -4 -8l-122 -122q-12 -12 -24 -12h-107q-9 0 -9 7q0 6 4 10l93 117q12 15 27 15h131q11 0 11 -7z" />
    <glyph glyph-name="mu" unicode="&#xb5;" horiz-adv-x="612" 
d="M552 551v-502q0 -21 -31 -31q-81 -27 -211 -27q-50 0 -89 9v-171q0 -8 -6 -14t-14 -6h-122q-8 0 -14 6t-6 14v722q0 8 6.5 15t14.5 7h121q8 0 14.5 -7t6.5 -15v-332q0 -52 20.5 -73.5t67.5 -21.5q52 0 80 7v420q0 8 6 15t14 7h121q8 0 14.5 -7t6.5 -15z" />
    <glyph glyph-name="paragraph" unicode="&#xb6;" horiz-adv-x="659" 
d="M602 724v-900q0 -19 -17 -19h-43q-17 0 -17 19v843h-63v-843q0 -19 -17 -19h-43q-17 0 -17 19v418h-96q-108 0 -176 59t-68 164v55q0 105 68 164t176 59h297q16 0 16 -19z" />
    <glyph glyph-name="periodcentered" unicode="&#xb7;" horiz-adv-x="274" 
d="M216 445v-126q0 -8 -6 -14t-14 -6h-117q-8 0 -14.5 6t-6.5 14v126q0 8 6.5 13.5t14.5 5.5h117q8 0 14 -5.5t6 -13.5z" />
    <glyph glyph-name="cedilla" unicode="&#xb8;" horiz-adv-x="426" 
d="M324 -42q0 -4 -4 -8l-123 -122q-12 -12 -24 -12h-107q-9 0 -9 7q0 6 4 10l93 117q12 15 27 15h132q11 0 11 -7z" />
    <glyph glyph-name="onesuperior" unicode="&#xb9;" horiz-adv-x="324" 
d="M219 733v-388q0 -11 -10 -11h-85q-10 0 -10 11v296l-64 -26q-2 -1 -5 -1q-1 -1 -2 -1q-5 0 -5 6v73q0 8 8 11l85 36q9 4 12 4h65q11 0 11 -10z" />
    <glyph glyph-name="ordmasculine" unicode="&#xba;" horiz-adv-x="380" 
d="M347 584v-33q0 -165 -156 -165q-157 0 -157 165v33q0 83 40.5 124.5t116.5 41.5q156 0 156 -166zM240 551v33q0 42 -11.5 59t-37.5 17q-27 0 -39 -17.5t-12 -58.5v-33q0 -41 12 -58.5t39 -17.5q26 0 37.5 17t11.5 59z" />
    <glyph glyph-name="guillemotright" unicode="&#xbb;" horiz-adv-x="718" 
d="M683 286q0 -12 -11 -26l-160 -185q-11 -12 -29 -12h-121q-14 0 -14 11q0 4 4 9l176 203l-176 203q-4 5 -4 9q0 11 14 11h121q18 0 29 -12l160 -185q11 -14 11 -26zM378 286q0 -15 -10 -26l-160 -185q-11 -12 -30 -12h-121q-14 0 -14 11q0 4 4 9l176 203l-176 203
q-4 5 -4 9q0 11 14 11h121q19 0 30 -12l160 -185q10 -11 10 -26z" />
    <glyph glyph-name="onequarter" unicode="&#xbc;" horiz-adv-x="790" 
d="M752 157v-55q0 -14 -15 -14h-29v-73q0 -15 -14 -15h-76q-13 0 -13 15v73h-145q-14 0 -14 11v62q0 13 6 20l165 221q4 7 14 7h57q8 0 14 -5.5t6 -14.5v-219h29q15 0 15 -13zM648 734q0 -5 -3 -11l-418 -709q-6 -10 -9.5 -13t-11.5 -3h-104q-11 0 -11 11q0 4 3 10l419 708
q10 16 22 16h103q10 0 10 -9zM609 170v107q0 7 -2 7q-3 0 -6 -5l-73 -99q-4 -4 -4 -8q0 -2 7 -2h78zM219 733v-388q0 -11 -10 -11h-85q-10 0 -10 11v296l-64 -26q-2 -1 -5 -1q-1 -1 -2 -1q-5 0 -5 6v73q0 8 8 11l85 36q9 4 12 4h65q11 0 11 -10z" />
    <glyph glyph-name="onehalf" unicode="&#xbd;" horiz-adv-x="815" 
d="M777 303q0 -62 -61 -102l-47 -32q-46 -31 -58.5 -44t-12.5 -31v-4h160q14 0 14 -13v-64q0 -13 -14 -13h-244q-14 0 -14 14v50q0 56 23.5 92t71.5 69l55 37q15 11 19.5 18.5t4.5 20.5q0 16 -11.5 21t-46.5 5q-50 0 -96 -6h-2q-13 0 -13 13v48q0 7 14 13q58 18 113 18
q75 0 110 -26t35 -84zM648 734q0 -5 -3 -11l-418 -709q-6 -10 -9.5 -13t-11.5 -3h-104q-11 0 -11 11q0 4 3 10l419 708q10 16 22 16h103q10 0 10 -9zM219 733v-388q0 -11 -10 -11h-85q-10 0 -10 11v296l-64 -26q-2 -1 -5 -1q-1 -1 -2 -1q-5 0 -5 6v73q0 8 8 11l85 36
q9 4 12 4h65q11 0 11 -10z" />
    <glyph glyph-name="threequarters" unicode="&#xbe;" horiz-adv-x="860" 
d="M822 157v-55q0 -14 -15 -14h-29v-73q0 -15 -14 -15h-76q-13 0 -13 15v73h-145q-14 0 -14 11v62q0 13 6 20l165 221q4 7 14 7h57q8 0 14 -5.5t6 -14.5v-219h29q15 0 15 -13zM718 734q0 -5 -3 -11l-417 -707q-6 -10 -9.5 -13t-11.5 -3h-104q-11 0 -11 11q0 4 3 10l418 706
q10 16 22 16h103q10 0 10 -9zM314 644v-7q0 -58 -48 -89q47 -28 47 -84v-6q0 -60 -39 -92t-111 -32q-75 0 -115 19q-10 4 -10 12v48q0 13 13 13h1q38 -5 84 -5q44 0 60 7t16 30v6q0 24 -8.5 33.5t-32.5 9.5h-96q-14 0 -14 14v52q0 14 14 14h91q46 0 46 34v8q0 22 -14 29
t-51 7h-12q-34 0 -80 -6h-1q-13 0 -13 13v49q0 7 13 13q46 18 109 18q151 0 151 -108zM679 170v107q0 7 -2 7q-3 0 -6 -5l-73 -99q-4 -4 -4 -8q0 -2 7 -2h78z" />
    <glyph glyph-name="questiondown" unicode="&#xbf;" horiz-adv-x="479" 
d="M375 554v-126q0 -8 -6 -14t-14 -6h-118q-8 0 -14 6t-6 14v126q0 8 6 13.5t14 5.5h118q8 0 14 -5.5t6 -13.5zM445 -54v-89q0 -21 -18 -26q-69 -21 -160 -21q-109 0 -164 38.5t-55 127.5v17q0 33 17 67.5t60 89.5l45 58q6 8 14 18t11.5 15t9 12t7.5 10.5t5 8.5l4.5 7.5
t2.5 6t1.5 6.5t0.5 7v28q0 8 7.5 13.5t16.5 5.5h100q8 0 13.5 -6t5.5 -14v-27q0 -43 -7.5 -69.5t-34.5 -62.5l-48 -63q-46 -61 -46 -101v-10q0 -37 49 -37q68 0 143 11h3q17 0 17 -21z" />
    <glyph glyph-name="Agrave" unicode="&#xc0;" horiz-adv-x="669" 
d="M650 16q0 -16 -17 -16h-140q-15 0 -20 18l-36 164h-205l-36 -164q-5 -18 -20 -18h-140q-17 0 -17 16l1 2v3l149 620q16 65 59.5 88t106.5 23t106 -23t59 -88l149 -620q0 -2 1 -3v-2zM409 319l-61 276l-1.5 6t-1.5 4t-2.5 3t-3 1.5t-4.5 0.5q-11 0 -14 -15l-61 -276h149z
M453 801q0 -7 -9 -7h-107q-12 0 -24 12l-122 122q-4 4 -4 8q0 7 11 7h132q15 0 27 -15l92 -117q4 -4 4 -10z" />
    <glyph glyph-name="Aacute" unicode="&#xc1;" horiz-adv-x="669" 
d="M650 16q0 -16 -17 -16h-140q-15 0 -20 18l-36 164h-205l-36 -164q-5 -18 -20 -18h-140q-17 0 -17 16l1 2v3l149 620q16 65 59.5 88t106.5 23t106 -23t59 -88l149 -620q0 -2 1 -3v-2zM409 319l-61 276l-1.5 6t-1.5 4t-2.5 3t-3 1.5t-4.5 0.5q-11 0 -14 -15l-61 -276h149z
M497 936q0 -4 -4 -8l-122 -122q-12 -12 -24 -12h-107q-9 0 -9 7q0 6 4 10l93 117q12 15 27 15h131q11 0 11 -7z" />
    <glyph glyph-name="Acircumflex" unicode="&#xc2;" horiz-adv-x="669" 
d="M650 16q0 -16 -17 -16h-140q-15 0 -20 18l-36 164h-205l-36 -164q-5 -18 -20 -18h-140q-17 0 -17 16l1 2v3l149 620q16 65 59.5 88t106.5 23t106 -23t59 -88l149 -620q0 -2 1 -3v-2zM409 319l-61 276l-1.5 6t-1.5 4t-2.5 3t-3 1.5t-4.5 0.5q-11 0 -14 -15l-61 -276h149z
M534 802q0 -7 -9 -7h-103q-13 0 -24 12l-63 70l-64 -70q-11 -12 -24 -12h-103q-9 0 -9 7q0 6 4 10l89 117q12 15 27 15h160q16 0 27 -15l88 -117q4 -4 4 -10z" />
    <glyph glyph-name="Atilde" unicode="&#xc3;" horiz-adv-x="669" 
d="M650 16q0 -16 -17 -16h-140q-15 0 -20 18l-36 164h-205l-36 -164q-5 -18 -20 -18h-140q-17 0 -17 16l1 2v3l149 620q16 65 59.5 88t106.5 23t106 -23t59 -88l149 -620q0 -2 1 -3v-2zM409 319l-61 276l-1.5 6t-1.5 4t-2.5 3t-3 1.5t-4.5 0.5q-11 0 -14 -15l-61 -276h149z
M535 927v-20q0 -120 -122 -120q-40 0 -71 22l-42 29q-26 18 -41 18q-23 0 -23 -27v-19q0 -17 -15 -17h-71q-15 0 -15 17v19q0 119 123 119q41 0 70 -21l43 -28q28 -18 40 -18q23 0 23 27v19q0 16 16 16h70q15 0 15 -16z" />
    <glyph glyph-name="Adieresis" unicode="&#xc4;" horiz-adv-x="669" 
d="M650 16q0 -16 -17 -16h-140q-15 0 -20 18l-36 164h-205l-36 -164q-5 -18 -20 -18h-140q-17 0 -17 16l1 2v3l149 620q16 65 59.5 88t106.5 23t106 -23t59 -88l149 -620q0 -2 1 -3v-2zM409 319l-61 276l-1.5 6t-1.5 4t-2.5 3t-3 1.5t-4.5 0.5q-11 0 -14 -15l-61 -276h149z
M511 914v-93q0 -8 -7 -14t-15 -6h-94q-8 0 -14.5 6t-6.5 14v93q0 8 6.5 14t14.5 6h94q8 0 15 -6t7 -14zM294 914v-93q0 -8 -6.5 -14t-14.5 -6h-94q-8 0 -15 6t-7 14v93q0 8 7 14t15 6h94q8 0 14.5 -6t6.5 -14z" />
    <glyph glyph-name="Aring" unicode="&#xc5;" horiz-adv-x="669" 
d="M650 16q0 -16 -17 -16h-140q-15 0 -20 18l-36 164h-205l-36 -164q-5 -18 -20 -18h-140q-17 0 -17 16l1 2v3l149 620q16 65 59.5 88t106.5 23t106 -23t59 -88l149 -620q0 -2 1 -3v-2zM409 319l-61 276l-1.5 6t-1.5 4t-2.5 3t-3 1.5t-4.5 0.5q-11 0 -14 -15l-61 -276h149z
M451 895q0 -49 -34 -83t-83 -34t-83 34t-34 83t34 83t83 34t83 -34t34 -83zM378 895q0 18 -13 31t-31 13t-31 -13t-13 -31t13 -31t31 -13t31 13t13 31z" />
    <glyph glyph-name="AE" unicode="&#xc6;" horiz-adv-x="923" 
d="M867 118v-93q0 -18 -20 -21l-26 -4q-61 -9 -143 -9q-51 0 -89 7.5t-73 27t-55.5 59t-24.5 97.5h-204l-36 -164q-5 -18 -20 -18h-140q-17 0 -17 16l1 2v3l149 620q9 34 25.5 56t41.5 31.5t46 12t53 2.5h512q20 0 20 -20v-97q0 -8 -6 -14t-14 -6h-242v-159h234q8 0 14 -6
t6 -14v-95q0 -8 -6 -14t-14 -6h-234v-106q0 -39 14 -53.5t50 -14.5h178q8 0 14 -6t6 -14zM435 319v291h-100q-11 0 -14 -15l-61 -276h175z" />
    <glyph glyph-name="Ccedilla" unicode="&#xc7;" horiz-adv-x="561" 
d="M520 128v-97q0 -11 -5 -15.5t-17 -7.5q-51 -17 -149 -17q-60 0 -111 17t-93.5 52.5t-67 99t-24.5 149.5v126q0 86 24.5 149.5t67 99t93.5 52t111 16.5q98 0 149 -17q13 -3 17.5 -7.5t4.5 -14.5v-97q0 -20 -19 -20h-3q-104 8 -148 8q-124 0 -124 -169v-126
q0 -169 124 -169q44 0 148 8h3q19 0 19 -20zM430 -42q0 -4 -4 -8l-123 -122q-12 -12 -24 -12h-107q-9 0 -9 7q0 6 4 10l93 117q12 15 27 15h132q11 0 11 -7z" />
    <glyph glyph-name="Egrave" unicode="&#xc8;" horiz-adv-x="580" 
d="M524 118v-93q0 -18 -20 -21q-91 -13 -194 -13q-42 0 -75 5t-65.5 19t-54 37t-35 62t-13.5 92v332q0 65 19 109t55.5 66t76 30.5t93.5 8.5q105 0 193 -13q20 -3 20 -20v-93q0 -8 -6 -14t-14 -6h-203q-36 0 -50 -14.5t-14 -53.5v-91h259q8 0 14 -6t6 -14v-95q0 -8 -6 -14
t-14 -6h-259v-106q0 -39 14 -53.5t50 -14.5h203q8 0 14 -6t6 -14zM394 802q0 -7 -9 -7h-107q-12 0 -24 12l-122 122q-4 4 -4 8q0 7 11 7h132q15 0 27 -15l92 -117q4 -4 4 -10z" />
    <glyph glyph-name="Eacute" unicode="&#xc9;" horiz-adv-x="580" 
d="M524 118v-93q0 -18 -20 -21q-91 -13 -194 -13q-42 0 -75 5t-65.5 19t-54 37t-35 62t-13.5 92v332q0 65 19 109t55.5 66t76 30.5t93.5 8.5q105 0 193 -13q20 -3 20 -20v-93q0 -8 -6 -14t-14 -6h-203q-36 0 -50 -14.5t-14 -53.5v-91h259q8 0 14 -6t6 -14v-95q0 -8 -6 -14
t-14 -6h-259v-106q0 -39 14 -53.5t50 -14.5h203q8 0 14 -6t6 -14zM477 937q0 -4 -4 -8l-122 -122q-12 -12 -24 -12h-107q-9 0 -9 7q0 6 4 10l93 117q12 15 27 15h131q11 0 11 -7z" />
    <glyph glyph-name="Ecircumflex" unicode="&#xca;" horiz-adv-x="580" 
d="M524 118v-93q0 -18 -20 -21q-91 -13 -194 -13q-42 0 -75 5t-65.5 19t-54 37t-35 62t-13.5 92v332q0 65 19 109t55.5 66t76 30.5t93.5 8.5q105 0 193 -13q20 -3 20 -20v-93q0 -8 -6 -14t-14 -6h-203q-36 0 -50 -14.5t-14 -53.5v-91h259q8 0 14 -6t6 -14v-95q0 -8 -6 -14
t-14 -6h-259v-106q0 -39 14 -53.5t50 -14.5h203q8 0 14 -6t6 -14zM509 802q0 -7 -9 -7h-103q-13 0 -24 12l-63 70l-64 -70q-11 -12 -24 -12h-103q-9 0 -9 7q0 6 4 10l89 117q12 15 27 15h160q16 0 27 -15l88 -117q4 -4 4 -10z" />
    <glyph glyph-name="Edieresis" unicode="&#xcb;" horiz-adv-x="580" 
d="M524 118v-93q0 -18 -20 -21q-91 -13 -194 -13q-42 0 -75 5t-65.5 19t-54 37t-35 62t-13.5 92v332q0 65 19 109t55.5 66t76 30.5t93.5 8.5q105 0 193 -13q20 -3 20 -20v-93q0 -8 -6 -14t-14 -6h-203q-36 0 -50 -14.5t-14 -53.5v-91h259q8 0 14 -6t6 -14v-95q0 -8 -6 -14
t-14 -6h-259v-106q0 -39 14 -53.5t50 -14.5h203q8 0 14 -6t6 -14zM470 914v-93q0 -8 -7 -14t-15 -6h-94q-8 0 -14.5 6t-6.5 14v93q0 8 6.5 14t14.5 6h94q8 0 15 -6t7 -14zM253 914v-93q0 -8 -6.5 -14t-14.5 -6h-94q-8 0 -15 6t-7 14v93q0 8 7 14t15 6h94q8 0 14.5 -6
t6.5 -14z" />
    <glyph glyph-name="Igrave" unicode="&#xcc;" horiz-adv-x="311" 
d="M241 724v-704q0 -8 -5.5 -14t-13.5 -6h-134q-18 0 -18 20v704q0 19 18 19h134q19 0 19 -19zM254 802q0 -7 -9 -7h-107q-12 0 -24 12l-122 122q-4 4 -4 8q0 7 11 7h132q15 0 27 -15l92 -117q4 -4 4 -10z" />
    <glyph glyph-name="Iacute" unicode="&#xcd;" horiz-adv-x="311" 
d="M241 724v-704q0 -8 -5.5 -14t-13.5 -6h-134q-18 0 -18 20v704q0 19 18 19h134q19 0 19 -19zM326 937q0 -4 -4 -8l-122 -122q-12 -12 -24 -12h-107q-9 0 -9 7q0 6 4 10l93 117q12 15 27 15h131q11 0 11 -7z" />
    <glyph glyph-name="Icircumflex" unicode="&#xce;" horiz-adv-x="311" 
d="M241 724v-704q0 -8 -5.5 -14t-13.5 -6h-134q-18 0 -18 20v704q0 19 18 19h134q19 0 19 -19zM356 801q0 -7 -9 -7h-103q-13 0 -24 12l-63 70l-64 -70q-11 -12 -24 -12h-103q-9 0 -9 7q0 6 4 10l89 117q12 15 27 15h160q16 0 27 -15l88 -117q4 -4 4 -10z" />
    <glyph glyph-name="Idieresis" unicode="&#xcf;" horiz-adv-x="311" 
d="M241 724v-704q0 -8 -5.5 -14t-13.5 -6h-134q-18 0 -18 20v704q0 19 18 19h134q19 0 19 -19zM332 914v-93q0 -8 -7 -14t-15 -6h-94q-8 0 -14.5 6t-6.5 14v93q0 8 6.5 14t14.5 6h94q8 0 15 -6t7 -14zM115 914v-93q0 -8 -6.5 -14t-14.5 -6h-94q-8 0 -15 6t-7 14v93q0 8 7 14
t15 6h94q8 0 14.5 -6t6.5 -14z" />
    <glyph glyph-name="Eth" unicode="&#xd0;" horiz-adv-x="682" 
d="M631 422v-101q0 -170 -85 -250t-234 -80q-126 0 -217 16q-29 5 -29 35v270h-55q-19 0 -19 19v97q0 19 19 19h55v254q0 30 29 35q92 16 217 16q149 0 234 -80t85 -250zM457 321v101q0 101 -35.5 141.5t-109.5 40.5h-18q-10 0 -30.5 -1t-25.5 -1v-155h61q19 0 19 -19v-97
q0 -19 -19 -19h-61v-172q3 0 15.5 -0.5t19.5 -0.5h39q74 0 109.5 40.5t35.5 141.5z" />
    <glyph glyph-name="Ntilde" unicode="&#xd1;" horiz-adv-x="729" 
d="M659 724v-686q0 -16 -11.5 -27t-27.5 -11h-98q-34 0 -52 31l-228 394q-5 8 -9 8q-5 0 -5 -8v-405q0 -8 -6 -14t-14 -6h-118q-8 0 -14 6t-6 14v685q0 16 11 27t27 11h101q24 0 42 -31l237 -412q5 -8 8 -8q5 0 5 9v423q0 8 6 13.5t14 5.5h118q8 0 14 -5.5t6 -13.5zM558 927
v-20q0 -120 -122 -120q-40 0 -71 22l-42 29q-25 18 -41 18q-23 0 -23 -27v-19q0 -17 -15 -17h-71q-15 0 -15 17v19q0 119 123 119q41 0 70 -21l43 -28q28 -18 40 -18q23 0 23 27v19q0 16 16 16h70q15 0 15 -16z" />
    <glyph glyph-name="Ograve" unicode="&#xd2;" horiz-adv-x="698" 
d="M645 431v-119q0 -165 -81.5 -243t-214.5 -78t-214.5 78t-81.5 243v119q0 165 81.5 243t214.5 78t214.5 -78t81.5 -243zM473 312v119q0 90 -30 130.5t-94 40.5t-93.5 -40.5t-29.5 -130.5v-119q0 -90 29.5 -130.5t93.5 -40.5t94 40.5t30 130.5zM438 801q0 -7 -9 -7h-107
q-12 0 -24 12l-122 122q-4 4 -4 8q0 7 11 7h132q15 0 27 -15l92 -117q4 -4 4 -10z" />
    <glyph glyph-name="Oacute" unicode="&#xd3;" horiz-adv-x="698" 
d="M645 431v-119q0 -165 -81.5 -243t-214.5 -78t-214.5 78t-81.5 243v119q0 165 81.5 243t214.5 78t214.5 -78t81.5 -243zM473 312v119q0 90 -30 130.5t-94 40.5t-93.5 -40.5t-29.5 -130.5v-119q0 -90 29.5 -130.5t93.5 -40.5t94 40.5t30 130.5zM514 937q0 -4 -4 -8
l-122 -122q-12 -12 -24 -12h-107q-9 0 -9 7q0 6 4 10l93 117q12 15 27 15h131q11 0 11 -7z" />
    <glyph glyph-name="Ocircumflex" unicode="&#xd4;" horiz-adv-x="698" 
d="M645 431v-119q0 -165 -81.5 -243t-214.5 -78t-214.5 78t-81.5 243v119q0 165 81.5 243t214.5 78t214.5 -78t81.5 -243zM473 312v119q0 90 -30 130.5t-94 40.5t-93.5 -40.5t-29.5 -130.5v-119q0 -90 29.5 -130.5t93.5 -40.5t94 40.5t30 130.5zM544 802q0 -7 -9 -7h-103
q-13 0 -24 12l-63 70l-64 -70q-11 -12 -24 -12h-103q-9 0 -9 7q0 6 4 10l89 117q12 15 27 15h160q16 0 27 -15l88 -117q4 -4 4 -10z" />
    <glyph glyph-name="Otilde" unicode="&#xd5;" horiz-adv-x="698" 
d="M645 431v-119q0 -165 -81.5 -243t-214.5 -78t-214.5 78t-81.5 243v119q0 165 81.5 243t214.5 78t214.5 -78t81.5 -243zM473 312v119q0 90 -30 130.5t-94 40.5t-93.5 -40.5t-29.5 -130.5v-119q0 -90 29.5 -130.5t93.5 -40.5t94 40.5t30 130.5zM553 928v-20
q0 -120 -122 -120q-40 0 -71 22l-42 29q-26 18 -41 18q-23 0 -23 -27v-19q0 -17 -15 -17h-71q-15 0 -15 17v19q0 119 123 119q41 0 70 -21l43 -28q28 -18 40 -18q23 0 23 27v19q0 16 16 16h70q15 0 15 -16z" />
    <glyph glyph-name="Odieresis" unicode="&#xd6;" horiz-adv-x="698" 
d="M645 431v-119q0 -165 -81.5 -243t-214.5 -78t-214.5 78t-81.5 243v119q0 165 81.5 243t214.5 78t214.5 -78t81.5 -243zM473 312v119q0 90 -30 130.5t-94 40.5t-93.5 -40.5t-29.5 -130.5v-119q0 -90 29.5 -130.5t93.5 -40.5t94 40.5t30 130.5zM526 914v-93q0 -8 -7 -14
t-15 -6h-94q-8 0 -14.5 6t-6.5 14v93q0 8 6.5 14t14.5 6h94q8 0 15 -6t7 -14zM309 914v-93q0 -8 -6.5 -14t-14.5 -6h-94q-8 0 -15 6t-7 14v93q0 8 7 14t15 6h94q8 0 14.5 -6t6.5 -14z" />
    <glyph glyph-name="multiply" unicode="&#xd7;" 
d="M537 255q0 -5 -5 -10l-63 -63q-5 -5 -10 -5q-8 0 -16 8l-120 120l-120 -120q-8 -8 -15 -8q-5 0 -10 5l-64 64q-5 5 -5 10q0 7 8 15l120 120l-120 120q-8 8 -8 15q0 5 5 10l64 64q5 5 10 5q7 0 15 -8l120 -120l120 120q8 8 16 8q5 0 10 -5l63 -63q5 -5 5 -10q0 -8 -8 -16
l-120 -120l120 -120q8 -8 8 -16z" />
    <glyph glyph-name="Oslash" unicode="&#xd8;" horiz-adv-x="698" 
d="M677 739q0 -3 -3 -8l-75 -103q46 -78 46 -197v-119q0 -165 -81.5 -243t-214.5 -78q-101 0 -174 46l-19 -27q-17 -19 -26 -19h-97q-11 0 -11 11q0 4 3 8l75 104q-47 79 -47 198v119q0 165 81.5 243t214.5 78q106 0 176 -46l18 25q17 19 26 19h97q11 0 11 -11zM227 291
l204 284q-30 27 -82 27q-64 0 -93.5 -40.5t-29.5 -130.5v-119q0 -4 0.5 -11t0.5 -10zM473 312v139l-204 -284q29 -26 80 -26q64 0 94 40.5t30 130.5z" />
    <glyph glyph-name="Ugrave" unicode="&#xd9;" horiz-adv-x="711" 
d="M644 724v-445q0 -83 -22 -141t-63.5 -89t-90.5 -44.5t-113 -13.5t-113 13.5t-90 44.5t-63 89t-22 141v445q0 8 6 13.5t14 5.5h131q8 0 14 -5.5t6 -13.5v-445q0 -78 26 -111.5t91 -33.5q66 0 92 33.5t26 111.5v445q0 8 6 13.5t14 5.5h130q8 0 14.5 -5.5t6.5 -13.5z
M460 801q0 -7 -9 -7h-107q-12 0 -24 12l-122 122q-4 4 -4 8q0 7 11 7h132q15 0 27 -15l92 -117q4 -4 4 -10z" />
    <glyph glyph-name="Uacute" unicode="&#xda;" horiz-adv-x="711" 
d="M644 724v-445q0 -83 -22 -141t-63.5 -89t-90.5 -44.5t-113 -13.5t-113 13.5t-90 44.5t-63 89t-22 141v445q0 8 6 13.5t14 5.5h131q8 0 14 -5.5t6 -13.5v-445q0 -78 26 -111.5t91 -33.5q66 0 92 33.5t26 111.5v445q0 8 6 13.5t14 5.5h130q8 0 14.5 -5.5t6.5 -13.5z
M534 936q0 -4 -4 -8l-122 -122q-12 -12 -24 -12h-107q-9 0 -9 7q0 6 4 10l93 117q12 15 27 15h131q11 0 11 -7z" />
    <glyph glyph-name="Ucircumflex" unicode="&#xdb;" horiz-adv-x="711" 
d="M644 724v-445q0 -83 -22 -141t-63.5 -89t-90.5 -44.5t-113 -13.5t-113 13.5t-90 44.5t-63 89t-22 141v445q0 8 6 13.5t14 5.5h131q8 0 14 -5.5t6 -13.5v-445q0 -78 26 -111.5t91 -33.5q66 0 92 33.5t26 111.5v445q0 8 6 13.5t14 5.5h130q8 0 14.5 -5.5t6.5 -13.5z
M554 802q0 -7 -9 -7h-103q-13 0 -24 12l-63 70l-64 -70q-11 -12 -24 -12h-103q-9 0 -9 7q0 6 4 10l89 117q12 15 27 15h160q16 0 27 -15l88 -117q4 -4 4 -10z" />
    <glyph glyph-name="Udieresis" unicode="&#xdc;" horiz-adv-x="711" 
d="M644 724v-445q0 -83 -22 -141t-63.5 -89t-90.5 -44.5t-113 -13.5t-113 13.5t-90 44.5t-63 89t-22 141v445q0 8 6 13.5t14 5.5h131q8 0 14 -5.5t6 -13.5v-445q0 -78 26 -111.5t91 -33.5q66 0 92 33.5t26 111.5v445q0 8 6 13.5t14 5.5h130q8 0 14.5 -5.5t6.5 -13.5z
M532 914v-93q0 -8 -7 -14t-15 -6h-94q-8 0 -14.5 6t-6.5 14v93q0 8 6.5 14t14.5 6h94q8 0 15 -6t7 -14zM315 914v-93q0 -8 -6.5 -14t-14.5 -6h-94q-8 0 -15 6t-7 14v93q0 8 7 14t15 6h94q8 0 14.5 -6t6.5 -14z" />
    <glyph glyph-name="Yacute" unicode="&#xdd;" horiz-adv-x="647" 
d="M626 728q0 -6 -1 -7l-151 -346q-25 -59 -65 -77v-278q0 -8 -6 -14t-14 -6h-131q-8 0 -14 6t-6 14v278q-41 19 -66 77l-151 346q-1 1 -1 7q0 15 16 15h144q14 0 20 -17l108 -282q6 -15 15 -15t15 15l108 282q6 17 20 17h144q16 0 16 -15zM509 936q0 -4 -4 -8l-122 -122
q-12 -12 -24 -12h-107q-9 0 -9 7q0 6 4 10l93 117q12 15 27 15h131q11 0 11 -7z" />
    <glyph glyph-name="Thorn" unicode="&#xde;" horiz-adv-x="651" 
d="M618 425v-11q0 -69 -25.5 -118.5t-70 -76t-95 -38.5t-110.5 -12q-22 0 -78 2v-151q0 -8 -5.5 -14t-13.5 -6h-131q-8 0 -13.5 6t-5.5 14v704q0 19 19 19h131q19 0 19 -19v-59q1 0 13 0.5t19 0.5h42q62 0 113.5 -11.5t96.5 -38t70 -75t25 -116.5zM447 414v11
q0 52 -32.5 74.5t-97.5 22.5h-41q-9 0 -22.5 -0.5t-14.5 -0.5v-207q1 0 15 -0.5t23 -0.5h40q66 0 98 24t32 77z" />
    <glyph glyph-name="germandbls" unicode="&#xdf;" horiz-adv-x="652" 
d="M598 246v-21q0 -114 -70 -174t-173 -60q-29 0 -61 6q-20 5 -20 19v96q0 16 11 16h1q6 -1 18 -1h19q112 0 112 98v21q0 40 -26 64t-81 24h-31q-8 0 -14 5.5t-6 13.5v79q0 8 6 13.5t14 5.5h31q52 0 75 23.5t23 59.5v19q0 82 -97 82q-61 0 -85 -31.5t-24 -88.5v-494
q0 -8 -5.5 -14.5t-13.5 -6.5h-124q-8 0 -14 6.5t-6 14.5v494q0 259 272 259q125 0 192 -57.5t67 -163.5v-19q0 -43 -27 -81.5t-64 -55.5q48 -20 74.5 -60t26.5 -91z" />
    <glyph glyph-name="agrave" unicode="&#xe0;" horiz-adv-x="562" 
d="M502 377v-357q0 -8 -6 -14t-14 -6h-112q-8 0 -14 6t-6 14v16q-63 -45 -139 -45q-74 0 -122.5 40.5t-48.5 131.5v9q0 88 58.5 128.5t187.5 40.5h54v36q0 40 -18.5 54.5t-56.5 14.5q-91 0 -136 -5l-30 -2h-5q-18 0 -18 18v81q0 18 19 22q86 21 173 21q234 0 234 -204z
M366 637q0 -7 -9 -7h-107q-12 0 -24 12l-122 122q-4 4 -4 8q0 7 11 7h132q15 0 27 -15l92 -117q4 -4 4 -10zM343 135v110h-57q-50 0 -69 -17.5t-19 -55.5v-9q0 -31 14 -40.5t49 -9.5q38 0 82 22z" />
    <glyph glyph-name="aacute" unicode="&#xe1;" horiz-adv-x="562" 
d="M502 377v-357q0 -8 -6 -14t-14 -6h-112q-8 0 -14 6t-6 14v16q-63 -45 -139 -45q-74 0 -122.5 40.5t-48.5 131.5v9q0 88 58.5 128.5t187.5 40.5h54v36q0 40 -18.5 54.5t-56.5 14.5q-91 0 -136 -5l-30 -2h-5q-18 0 -18 18v81q0 18 19 22q86 21 173 21q234 0 234 -204z
M465 772q0 -4 -4 -8l-122 -122q-12 -12 -24 -12h-107q-9 0 -9 7q0 6 4 10l93 117q12 15 27 15h131q11 0 11 -7zM343 135v110h-57q-50 0 -69 -17.5t-19 -55.5v-9q0 -31 14 -40.5t49 -9.5q38 0 82 22z" />
    <glyph glyph-name="acircumflex" unicode="&#xe2;" horiz-adv-x="562" 
d="M502 377v-357q0 -8 -6 -14t-14 -6h-112q-8 0 -14 6t-6 14v16q-63 -45 -139 -45q-74 0 -122.5 40.5t-48.5 131.5v9q0 88 58.5 128.5t187.5 40.5h54v36q0 40 -18.5 54.5t-56.5 14.5q-91 0 -136 -5l-30 -2h-5q-18 0 -18 18v81q0 18 19 22q86 21 173 21q234 0 234 -204z
M485 637q0 -7 -9 -7h-103q-13 0 -24 12l-63 70l-64 -70q-11 -12 -24 -12h-103q-9 0 -9 7q0 6 4 10l89 117q12 15 27 15h160q16 0 27 -15l88 -117q4 -4 4 -10zM343 135v110h-57q-50 0 -69 -17.5t-19 -55.5v-9q0 -31 14 -40.5t49 -9.5q38 0 82 22z" />
    <glyph glyph-name="atilde" unicode="&#xe3;" horiz-adv-x="562" 
d="M502 377v-357q0 -8 -6 -14t-14 -6h-112q-8 0 -14 6t-6 14v16q-63 -45 -139 -45q-74 0 -122.5 40.5t-48.5 131.5v9q0 88 58.5 128.5t187.5 40.5h54v36q0 40 -18.5 54.5t-56.5 14.5q-91 0 -136 -5l-30 -2h-5q-18 0 -18 18v81q0 18 19 22q86 21 173 21q234 0 234 -204z
M489 766v-20q0 -120 -122 -120q-40 0 -71 22l-42 29q-25 18 -41 18q-23 0 -23 -27v-19q0 -17 -15 -17h-71q-15 0 -15 17v19q0 119 123 119q41 0 70 -21l43 -28q28 -18 40 -18q23 0 23 27v19q0 16 16 16h70q15 0 15 -16zM343 135v110h-57q-50 0 -69 -17.5t-19 -55.5v-9
q0 -31 14 -40.5t49 -9.5q38 0 82 22z" />
    <glyph glyph-name="adieresis" unicode="&#xe4;" horiz-adv-x="562" 
d="M502 377v-357q0 -8 -6 -14t-14 -6h-112q-8 0 -14 6t-6 14v16q-63 -45 -139 -45q-74 0 -122.5 40.5t-48.5 131.5v9q0 88 58.5 128.5t187.5 40.5h54v36q0 40 -18.5 54.5t-56.5 14.5q-91 0 -136 -5l-30 -2h-5q-18 0 -18 18v81q0 18 19 22q86 21 173 21q234 0 234 -204z
M247 753v-93q0 -8 -6.5 -14t-14.5 -6h-94q-8 0 -15 6t-7 14v93q0 8 7 14t15 6h94q8 0 14.5 -6t6.5 -14zM464 753v-93q0 -8 -7 -14t-15 -6h-94q-8 0 -14.5 6t-6.5 14v93q0 8 6.5 14t14.5 6h94q8 0 15 -6t7 -14zM343 135v110h-57q-50 0 -69 -17.5t-19 -55.5v-9q0 -31 14 -40.5
t49 -9.5q38 0 82 22z" />
    <glyph glyph-name="aring" unicode="&#xe5;" horiz-adv-x="562" 
d="M502 377v-357q0 -8 -6 -14t-14 -6h-112q-8 0 -14 6t-6 14v16q-63 -45 -139 -45q-74 0 -122.5 40.5t-48.5 131.5v9q0 88 58.5 128.5t187.5 40.5h54v36q0 40 -18.5 54.5t-56.5 14.5q-91 0 -136 -5l-30 -2h-5q-18 0 -18 18v81q0 18 19 22q86 21 173 21q234 0 234 -204z
M400 741q0 -49 -34 -83t-83 -34t-83 34t-34 83t34 83t83 34t83 -34t34 -83zM343 135v110h-57q-50 0 -69 -17.5t-19 -55.5v-9q0 -31 14 -40.5t49 -9.5q38 0 82 22zM327 741q0 18 -13 31t-31 13t-31 -13t-13 -31t13 -31t31 -13t31 13t13 31z" />
    <glyph glyph-name="ae" unicode="&#xe6;" horiz-adv-x="881" 
d="M835 329v-64q0 -8 -6.5 -14.5t-14.5 -6.5h-310v-41q0 -77 116 -77q74 0 173 8h5q16 0 16 -16v-72q0 -20 -19 -26q-85 -29 -198 -29q-88 0 -141 46q-84 -46 -195 -46q-93 0 -156 44.5t-63 136.5v11q0 84 66.5 121t192.5 37h42v9q0 55 -17 75.5t-61 20.5q-100 0 -163 -7h-3
q-17 0 -17 18v79q0 19 20 24q89 21 163 21q110 0 170 -60q62 60 158 60q122 0 182 -68t60 -184zM680 332v18q0 106 -88 106t-88 -106v-18h176zM348 119v134h-47q-55 0 -80 -16t-25 -54v-11q0 -34 22.5 -50t56.5 -16q44 0 73 13z" />
    <glyph glyph-name="ccedilla" unicode="&#xe7;" horiz-adv-x="474" 
d="M432 118v-89q0 -11 -4.5 -15.5t-16.5 -7.5q-60 -15 -133 -15q-108 0 -170.5 66t-62.5 187v84q0 121 62.5 187t170.5 66q73 0 133 -15q12 -3 16.5 -7.5t4.5 -15.5v-89q0 -17 -19 -17h-2q-65 7 -122 7q-82 0 -82 -116v-84q0 -116 82 -116q57 0 122 7h2q19 0 19 -17z
M345 -42q0 -4 -4 -8l-123 -122l-11 -9q-3 -3 -13 -3h-107q-10 0 -10 7q0 2 5 10l93 117q11 15 27 15h132q11 0 11 -7z" />
    <glyph glyph-name="egrave" unicode="&#xe8;" horiz-adv-x="590" 
d="M545 318v-58q0 -24 -21 -24h-319v-2q0 -109 103 -109q72 0 192 9h3q19 0 19 -16v-76q0 -22 -21 -27q-96 -24 -205 -24q-48 0 -90.5 13.5t-80 42t-59 80.5t-21.5 121v70q0 122 67 192.5t186 70.5t183 -72.5t64 -190.5zM387 336v4q0 111 -90 111q-43 0 -67.5 -28.5
t-24.5 -82.5v-4h182zM407 637q0 -7 -9 -7h-107q-12 0 -24 12l-122 122q-4 4 -4 8q0 7 11 7h132q15 0 27 -15l92 -117q4 -4 4 -10z" />
    <glyph glyph-name="eacute" unicode="&#xe9;" horiz-adv-x="590" 
d="M545 318v-58q0 -24 -21 -24h-319v-2q0 -109 103 -109q72 0 192 9h3q19 0 19 -16v-76q0 -22 -21 -27q-96 -24 -205 -24q-48 0 -90.5 13.5t-80 42t-59 80.5t-21.5 121v70q0 122 67 192.5t186 70.5t183 -72.5t64 -190.5zM387 336v4q0 111 -90 111q-43 0 -67.5 -28.5
t-24.5 -82.5v-4h182zM469 772q0 -4 -4 -8l-122 -122q-12 -12 -24 -12h-107q-9 0 -9 7q0 6 4 10l93 117q12 15 27 15h131q11 0 11 -7z" />
    <glyph glyph-name="ecircumflex" unicode="&#xea;" horiz-adv-x="590" 
d="M545 318v-58q0 -24 -21 -24h-319v-2q0 -109 103 -109q72 0 192 9h3q19 0 19 -16v-76q0 -22 -21 -27q-96 -24 -205 -24q-48 0 -90.5 13.5t-80 42t-59 80.5t-21.5 121v70q0 122 67 192.5t186 70.5t183 -72.5t64 -190.5zM387 336v4q0 111 -90 111q-43 0 -67.5 -28.5
t-24.5 -82.5v-4h182zM494 637q0 -7 -9 -7h-103q-13 0 -24 12l-63 70l-64 -70q-11 -12 -24 -12h-103q-9 0 -9 7q0 6 4 10l89 117q12 15 27 15h160q16 0 27 -15l88 -117q4 -4 4 -10z" />
    <glyph glyph-name="edieresis" unicode="&#xeb;" horiz-adv-x="590" 
d="M545 318v-58q0 -24 -21 -24h-319v-2q0 -109 103 -109q72 0 192 9h3q19 0 19 -16v-76q0 -22 -21 -27q-96 -24 -205 -24q-48 0 -90.5 13.5t-80 42t-59 80.5t-21.5 121v70q0 122 67 192.5t186 70.5t183 -72.5t64 -190.5zM387 336v4q0 111 -90 111q-43 0 -67.5 -28.5
t-24.5 -82.5v-4h182zM470 751v-93q0 -8 -7 -14t-15 -6h-94q-8 0 -14.5 6t-6.5 14v93q0 8 6.5 14t14.5 6h94q8 0 15 -6t7 -14zM253 751v-93q0 -8 -6.5 -14t-14.5 -6h-94q-8 0 -15 6t-7 14v93q0 8 7 14t15 6h94q8 0 14.5 -6t6.5 -14z" />
    <glyph glyph-name="igrave" unicode="&#xec;" horiz-adv-x="290" 
d="M233 637q0 -7 -10 -7h-107q-12 0 -24 12l-122 122q-4 4 -4 8q0 7 11 7h132q16 0 27 -15l92 -117q5 -8 5 -10zM226 552v-531q0 -8 -6.5 -14.5t-14.5 -6.5h-120q-8 0 -14.5 6.5t-6.5 14.5v531q0 8 6.5 14.5t14.5 6.5h120q8 0 14.5 -6.5t6.5 -14.5z" />
    <glyph glyph-name="iacute" unicode="&#xed;" horiz-adv-x="290" 
d="M329 772q0 -4 -4 -8l-122 -122q-12 -12 -24 -12h-107q-10 0 -10 7q0 2 5 10l93 117q11 15 27 15h131q11 0 11 -7zM226 552v-531q0 -8 -6.5 -14.5t-14.5 -6.5h-120q-8 0 -14.5 6.5t-6.5 14.5v531q0 8 6.5 14.5t14.5 6.5h120q8 0 14.5 -6.5t6.5 -14.5z" />
    <glyph glyph-name="icircumflex" unicode="&#xee;" horiz-adv-x="290" 
d="M226 552v-531q0 -8 -6.5 -14.5t-14.5 -6.5h-120q-8 0 -14.5 6.5t-6.5 14.5v531q0 8 6.5 14.5t14.5 6.5h120q8 0 14.5 -6.5t6.5 -14.5zM345 637q0 -7 -9 -7h-103q-13 0 -24 12l-63 70l-64 -70q-11 -12 -24 -12h-103q-9 0 -9 7q0 6 4 10l89 117q12 15 27 15h160
q16 0 27 -15l88 -117q4 -4 4 -10z" />
    <glyph glyph-name="idieresis" unicode="&#xef;" horiz-adv-x="290" 
d="M226 552v-531q0 -8 -6.5 -14.5t-14.5 -6.5h-120q-8 0 -14.5 6.5t-6.5 14.5v531q0 8 6.5 14.5t14.5 6.5h120q8 0 14.5 -6.5t6.5 -14.5zM323 751v-93q0 -8 -7 -14t-15 -6h-94q-8 0 -14.5 6t-6.5 14v93q0 8 6.5 14t14.5 6h94q8 0 15 -6t7 -14zM106 751v-93q0 -8 -6.5 -14
t-14.5 -6h-94q-8 0 -15 6t-7 14v93q0 8 7 14t15 6h94q8 0 14.5 -6t6.5 -14z" />
    <glyph glyph-name="eth" unicode="&#xf0;" horiz-adv-x="589" 
d="M545 290v-31q0 -134 -63.5 -201t-185.5 -67q-125 0 -188.5 69t-63.5 199v31q0 133 64.5 200t186.5 67q33 0 50 -9q-36 44 -112 81l-71 -54q-8 -6 -13 -6q-7 0 -11 6l-27 30q-3 3 -3 8q0 9 10 16l41 31q-44 14 -49 15q-16 6 -16 14q0 5 1 6l25 68q5 11 14 11q6 0 8 -1
q70 -18 116 -37l79 60q4 4 13 4q7 0 12 -5l27 -29q4 -4 4 -8q0 -7 -10 -14l-53 -41q109 -59 162 -158t53 -255zM384 259v31q0 70 -21 101t-68 31t-68.5 -31t-21.5 -101v-31q0 -69 22 -100.5t69 -31.5t67.5 31t20.5 101z" />
    <glyph glyph-name="ntilde" unicode="&#xf1;" horiz-adv-x="612" 
d="M552 354v-333q0 -8 -6.5 -14.5t-14.5 -6.5h-121q-8 0 -14 6.5t-6 14.5v333q0 54 -14.5 73.5t-59.5 19.5q-35 0 -94 -32v-394q0 -8 -6 -14.5t-14 -6.5h-121q-8 0 -14.5 6.5t-6.5 14.5v532q0 8 6 14t14 6h112q8 0 14 -6t6 -14v-24q73 52 163 52q100 0 138.5 -60t38.5 -167z
M503 766v-20q0 -120 -122 -120q-40 0 -71 22l-42 29q-26 18 -41 18q-23 0 -23 -27v-19q0 -17 -15 -17h-71q-15 0 -15 17v19q0 119 123 119q41 0 70 -21l43 -28q28 -18 40 -18q23 0 23 27v19q0 16 16 16h70q15 0 15 -16z" />
    <glyph glyph-name="ograve" unicode="&#xf2;" horiz-adv-x="589" 
d="M545 321v-70q0 -121 -65 -190.5t-185 -69.5t-185.5 69.5t-65.5 190.5v70q0 121 65.5 190.5t185.5 69.5t185 -69.5t65 -190.5zM384 251v70q0 122 -89 122q-90 0 -90 -122v-70q0 -123 90 -123q89 0 89 123zM386 637q0 -7 -9 -7h-107q-12 0 -24 12l-122 122q-4 4 -4 8
q0 7 11 7h132q15 0 27 -15l92 -117q4 -4 4 -10z" />
    <glyph glyph-name="oacute" unicode="&#xf3;" horiz-adv-x="589" 
d="M545 321v-70q0 -121 -65 -190.5t-185 -69.5t-185.5 69.5t-65.5 190.5v70q0 121 65.5 190.5t185.5 69.5t185 -69.5t65 -190.5zM384 251v70q0 122 -89 122q-90 0 -90 -122v-70q0 -123 90 -123q89 0 89 123zM465 772q0 -4 -4 -8l-122 -122q-12 -12 -24 -12h-107q-9 0 -9 7
q0 6 4 10l93 117q12 15 27 15h131q11 0 11 -7z" />
    <glyph glyph-name="ocircumflex" unicode="&#xf4;" horiz-adv-x="589" 
d="M545 321v-70q0 -121 -65 -190.5t-185 -69.5t-185.5 69.5t-65.5 190.5v70q0 121 65.5 190.5t185.5 69.5t185 -69.5t65 -190.5zM384 251v70q0 122 -89 122q-90 0 -90 -122v-70q0 -123 90 -123q89 0 89 123zM493 637q0 -7 -9 -7h-103q-13 0 -24 12l-63 70l-64 -70
q-11 -12 -24 -12h-103q-9 0 -9 7q0 6 4 10l89 117q12 15 27 15h160q16 0 27 -15l88 -117q4 -4 4 -10z" />
    <glyph glyph-name="otilde" unicode="&#xf5;" horiz-adv-x="589" 
d="M545 321v-70q0 -121 -65 -190.5t-185 -69.5t-185.5 69.5t-65.5 190.5v70q0 121 65.5 190.5t185.5 69.5t185 -69.5t65 -190.5zM384 251v70q0 122 -89 122q-90 0 -90 -122v-70q0 -123 90 -123q89 0 89 123zM493 766v-20q0 -120 -122 -120q-40 0 -71 22l-42 29
q-25 18 -41 18q-23 0 -23 -27v-19q0 -17 -15 -17h-71q-15 0 -15 17v19q0 119 123 119q41 0 70 -21l43 -28q28 -18 40 -18q23 0 23 27v19q0 16 16 16h70q15 0 15 -16z" />
    <glyph glyph-name="odieresis" unicode="&#xf6;" horiz-adv-x="589" 
d="M545 321v-70q0 -121 -65 -190.5t-185 -69.5t-185.5 69.5t-65.5 190.5v70q0 121 65.5 190.5t185.5 69.5t185 -69.5t65 -190.5zM384 251v70q0 122 -89 122q-90 0 -90 -122v-70q0 -123 90 -123q89 0 89 123zM470 751v-93q0 -8 -7 -14t-15 -6h-94q-8 0 -14.5 6t-6.5 14v93
q0 8 6.5 14t14.5 6h94q8 0 15 -6t7 -14zM253 751v-93q0 -8 -6.5 -14t-14.5 -6h-94q-8 0 -15 6t-7 14v93q0 8 7 14t15 6h94q8 0 14.5 -6t6.5 -14z" />
    <glyph glyph-name="divide" unicode="&#xf7;" 
d="M401 664v-112q0 -8 -6 -14t-14 -6h-118q-8 0 -14 6t-6 14v112q0 8 6 14t14 6h118q8 0 14 -6t6 -14zM552 436v-90q0 -16 -20 -16h-419q-20 0 -20 16v90q0 16 20 16h419q20 0 20 -16zM401 216v-112q0 -8 -6 -13.5t-14 -5.5h-118q-8 0 -14 5.5t-6 13.5v112q0 8 6 14t14 6
h118q8 0 14 -6t6 -14z" />
    <glyph glyph-name="oslash" unicode="&#xf8;" horiz-adv-x="589" 
d="M559 598q0 -7 -4 -11l-65 -87q55 -67 55 -179v-70q0 -121 -65 -190.5t-185 -69.5q-91 0 -150 40l-42 -56q-8 -10 -16 -10h-50q-8 0 -8 8q0 7 4 11l66 89q-55 67 -55 178v70q0 121 65.5 190.5t185.5 69.5q91 0 150 -40l40 55q8 10 16 10h50q8 0 8 -8zM207 219l148 201
q-23 23 -60 23q-90 0 -90 -122v-70q0 -10 2 -32zM384 251v70q0 10 -2 32l-148 -201q22 -24 61 -24q89 0 89 123z" />
    <glyph glyph-name="ugrave" unicode="&#xf9;" horiz-adv-x="612" 
d="M552 552v-532q0 -8 -6 -14t-14 -6h-112q-8 0 -14 6t-6 14v24q-73 -52 -163 -52q-100 0 -138.5 60.5t-38.5 166.5v333q0 8 6.5 14.5t14.5 6.5h121q8 0 14 -6.5t6 -14.5v-333q0 -54 14.5 -73.5t59.5 -19.5q35 0 94 32v394q0 8 6 14.5t14 6.5h121q8 0 14.5 -6.5t6.5 -14.5z
M397 637q0 -7 -9 -7h-107q-12 0 -24 12l-122 122q-4 4 -4 8q0 7 11 7h132q15 0 27 -15l92 -117q4 -4 4 -10z" />
    <glyph glyph-name="uacute" unicode="&#xfa;" horiz-adv-x="612" 
d="M552 552v-532q0 -8 -6 -14t-14 -6h-112q-8 0 -14 6t-6 14v24q-73 -52 -163 -52q-100 0 -138.5 60.5t-38.5 166.5v333q0 8 6.5 14.5t14.5 6.5h121q8 0 14 -6.5t6 -14.5v-333q0 -54 14.5 -73.5t59.5 -19.5q35 0 94 32v394q0 8 6 14.5t14 6.5h121q8 0 14.5 -6.5t6.5 -14.5z
M489 772q0 -4 -4 -8l-122 -122q-12 -12 -24 -12h-107q-9 0 -9 7q0 6 4 10l93 117q12 15 27 15h131q11 0 11 -7z" />
    <glyph glyph-name="ucircumflex" unicode="&#xfb;" horiz-adv-x="612" 
d="M552 552v-532q0 -8 -6 -14t-14 -6h-112q-8 0 -14 6t-6 14v24q-73 -52 -163 -52q-100 0 -138.5 60.5t-38.5 166.5v333q0 8 6.5 14.5t14.5 6.5h121q8 0 14 -6.5t6 -14.5v-333q0 -54 14.5 -73.5t59.5 -19.5q35 0 94 32v394q0 8 6 14.5t14 6.5h121q8 0 14.5 -6.5t6.5 -14.5z
M504 637q0 -7 -9 -7h-103q-13 0 -24 12l-63 70l-64 -70q-11 -12 -24 -12h-103q-9 0 -9 7q0 6 4 10l89 117q12 15 27 15h160q16 0 27 -15l88 -117q4 -4 4 -10z" />
    <glyph glyph-name="udieresis" unicode="&#xfc;" horiz-adv-x="612" 
d="M552 552v-532q0 -8 -6 -14t-14 -6h-112q-8 0 -14 6t-6 14v24q-73 -52 -163 -52q-100 0 -138.5 60.5t-38.5 166.5v333q0 8 6.5 14.5t14.5 6.5h121q8 0 14 -6.5t6 -14.5v-333q0 -54 14.5 -73.5t59.5 -19.5q35 0 94 32v394q0 8 6 14.5t14 6.5h121q8 0 14.5 -6.5t6.5 -14.5z
M483 751v-93q0 -8 -7 -14t-15 -6h-94q-8 0 -14.5 6t-6.5 14v93q0 8 6.5 14t14.5 6h94q8 0 15 -6t7 -14zM266 751v-93q0 -8 -6.5 -14t-14.5 -6h-94q-8 0 -15 6t-7 14v93q0 8 7 14t15 6h94q8 0 14.5 -6t6.5 -14z" />
    <glyph glyph-name="yacute" unicode="&#xfd;" horiz-adv-x="592" 
d="M570 555q0 -1 -0.5 -2t-0.5 -3l-168 -589q-26 -89 -70 -126t-149 -37q-73 0 -121 16q-21 8 -21 18v81q0 8 6 13.5t14 5.5h2q85 -8 125 -8q28 0 42.5 11.5t23.5 40.5l9 31h-15q-22 0 -35.5 4.5t-30 26t-27.5 62.5l-132 450q-1 2 -1 7q0 16 20 16h133q14 0 19 -19l90 -376
q4 -19 12 -19h9l93 395q5 19 21 19h133q19 0 19 -18zM489 772q0 -4 -4 -8l-122 -122q-12 -12 -24 -12h-107q-9 0 -9 7q0 6 4 10l93 117q12 15 27 15h131q11 0 11 -7z" />
    <glyph glyph-name="thorn" unicode="&#xfe;" horiz-adv-x="597" 
d="M555 323v-74q0 -122 -63.5 -190t-186.5 -68q-37 0 -83 10v-176q0 -8 -5.5 -14t-13.5 -6h-122q-8 0 -14.5 6t-6.5 14v922q0 8 5.5 14t13.5 6h124q8 0 13.5 -6t5.5 -14v-171q42 5 83 5q119 0 184.5 -67t65.5 -191zM393 249v74q0 124 -88 124q-33 0 -83 -6v-311q46 -6 83 -6
q88 0 88 125z" />
    <glyph glyph-name="ydieresis" unicode="&#xff;" horiz-adv-x="592" 
d="M570 555q0 -1 -0.5 -2t-0.5 -3l-168 -589q-26 -89 -70 -126t-149 -37q-73 0 -121 16q-21 8 -21 18v81q0 8 6 13.5t14 5.5h2q85 -8 125 -8q28 0 42.5 11.5t23.5 40.5l9 31h-15q-22 0 -35.5 4.5t-30 26t-27.5 62.5l-132 450q-1 2 -1 7q0 16 20 16h133q14 0 19 -19l90 -376
q4 -19 12 -19h9l93 395q5 19 21 19h133q19 0 19 -18zM259 751v-93q0 -8 -6.5 -14t-14.5 -6h-94q-8 0 -15 6t-7 14v93q0 8 7 14t15 6h94q8 0 14.5 -6t6.5 -14zM476 751v-93q0 -8 -7 -14t-15 -6h-94q-8 0 -14.5 6t-6.5 14v93q0 8 6.5 14t14.5 6h94q8 0 15 -6t7 -14z" />
    <glyph glyph-name="Gbreve" unicode="&#x11e;" 
d="M580 714v-106q0 -13 -15 -13h-3l-90 5q-54 3 -118 3q-65 0 -98 -38t-33 -132v-125q0 -94 33 -132t79 -38q41 0 77 3v230q0 8 5.5 14t13.5 6h128q8 0 14 -6t6 -14v-336q0 -18 -20 -23q-105 -21 -224 -21q-37 0 -73.5 8.5t-75.5 31t-68.5 57t-48.5 91.5t-19 130v124
q0 91 26.5 156.5t72 99.5t96 48.5t109.5 14.5q103 0 209 -23q17 -3 17 -15zM508 951l-1 -2v-2q-15 -65 -61.5 -105t-123.5 -40t-123.5 40t-61.5 105q0 2 -1 2v2q0 7 10 7h87q10 0 13 -12q15 -57 76 -57t76 57q4 10 7 11q2 1 6 1h87q10 0 10 -7z" />
    <glyph glyph-name="gbreve" unicode="&#x11f;" horiz-adv-x="599" 
d="M577 547v-57q0 -10 -4 -14.5t-14 -7.5l-31 -10q22 -35 22 -74v-8q0 -187 -247 -187q-67 0 -104 15q-14 -9 -14 -23q0 -12 6 -18t24 -10l113 -25q137 -30 185.5 -61t48.5 -100v-8q0 -163 -262 -163q-125 0 -189.5 42t-64.5 121v8q0 66 60 112q-25 14 -38 40t-13 53
q0 50 44 85q-46 40 -46 119v8q0 88 61.5 138.5t188.5 50.5h249q11 0 18 -7.5t7 -18.5zM485 772l-1 -2v-2q-15 -65 -61.5 -105t-123.5 -40t-123.5 40t-61.5 105q0 2 -1 2v2q0 7 10 7h87q10 0 13 -12q15 -57 76 -57t76 57q4 10 7 11q2 1 6 1h87q10 0 10 -7zM392 376v8
q0 34 -19.5 53t-69.5 19q-91 0 -91 -72v-8q0 -70 91 -70q50 0 69.5 17.5t19.5 52.5zM397 -41v8q0 16 -20 27.5t-83 24.5l-74 16q-20 -28 -20 -68v-8q0 -27 22 -39t78 -12q58 0 77.5 13t19.5 38z" />
    <glyph glyph-name="Idotaccent" unicode="&#x130;" horiz-adv-x="311" 
d="M241 724v-704q0 -8 -5.5 -14t-13.5 -6h-134q-18 0 -18 20v704q0 19 18 19h134q19 0 19 -19zM235 934v-102q0 -8 -6 -14t-14 -6h-118q-8 0 -14 6t-6 14v102q0 8 6 13.5t14 5.5h118q8 0 14 -5.5t6 -13.5z" />
    <glyph glyph-name="dotlessi" unicode="&#x131;" horiz-adv-x="290" 
d="M226 552v-531q0 -8 -6.5 -14.5t-14.5 -6.5h-120q-8 0 -14.5 6.5t-6.5 14.5v531q0 8 6.5 14.5t14.5 6.5h120q8 0 14.5 -6.5t6.5 -14.5z" />
    <glyph glyph-name="OE" unicode="&#x152;" horiz-adv-x="987" 
d="M931 118v-93q0 -18 -20 -21q-91 -13 -194 -13q-129 0 -185 51q-72 -51 -183 -51q-133 0 -214.5 78t-81.5 243v119q0 165 81.5 243t214.5 78q109 0 183 -52q58 51 186 51q105 0 193 -13q20 -3 20 -20v-93q0 -8 -6 -14t-14 -6h-203q-36 0 -50 -14.5t-14 -53.5v-72
q0 -3 0.5 -9t0.5 -9h258q8 0 14 -6t6 -14v-95q0 -8 -6 -14t-14 -6h-258q0 -6 -0.5 -17.5t-0.5 -16.5v-72q0 -39 14 -53.5t50 -14.5h203q8 0 14 -6t6 -14zM473 312v119q0 90 -30 130.5t-94 40.5t-93.5 -40.5t-29.5 -130.5v-119q0 -90 29.5 -130.5t93.5 -40.5t94 40.5
t30 130.5z" />
    <glyph glyph-name="oe" unicode="&#x153;" horiz-adv-x="932" 
d="M887 318v-58q0 -24 -21 -24h-319v-8q6 -103 103 -103q72 0 192 9h3q19 0 19 -16v-76q0 -22 -21 -27q-96 -24 -205 -24q-107 0 -171 65q-65 -65 -171 -65q-120 0 -185.5 69.5t-65.5 190.5v70q0 121 65.5 190.5t185.5 69.5q102 0 172 -67q67 67 172 67q119 0 183 -72.5
t64 -190.5zM385 251v70q0 122 -89 122t-89 -122v-70q0 -123 89 -123t89 123zM729 336v4q0 111 -90 111q-42 0 -67 -27.5t-25 -80.5v-7h182z" />
    <glyph glyph-name="Scedilla" unicode="&#x15e;" horiz-adv-x="588" 
d="M546 210q0 -42 -14.5 -79.5t-45 -69.5t-85.5 -51t-128 -19q-103 0 -189 22q-20 5 -20 20v98q0 19 18 19h3q164 -12 190 -12q50 0 69.5 16.5t19.5 53.5q0 22 -13.5 37.5t-52.5 38.5l-138 82q-65 39 -91.5 86t-26.5 105q0 195 256 195q54 0 118.5 -7t93.5 -15q15 -6 15 -18
v-101q0 -17 -17 -17h-2q-99 11 -212 11q-42 0 -60 -12.5t-18 -40.5q0 -21 13.5 -34.5t53.5 -35.5l128 -69q74 -40 104.5 -89t30.5 -114zM316 -42q0 -4 -4 -8l-123 -122q-12 -12 -24 -12h-107q-9 0 -9 7q0 6 4 10l93 117q12 15 27 15h132q11 0 11 -7z" />
    <glyph glyph-name="scedilla" unicode="&#x15f;" horiz-adv-x="503" 
d="M461 159q0 -74 -54.5 -121t-159.5 -47q-96 0 -182 22q-19 4 -19 23v81q0 19 19 19h4q93 -14 170 -14q35 0 47 9t12 30t-37 42l-130 75q-89 51 -89 148q0 155 205 155q88 0 178 -23q19 -4 19 -23v-81q0 -19 -17 -19h-3q-75 13 -166 13q-30 0 -41.5 -6t-11.5 -23
q0 -16 31 -35l124 -71q101 -59 101 -154zM291 -42q0 -4 -4 -8l-123 -122q-12 -12 -24 -12h-107q-9 0 -9 7q0 6 4 10l93 117q12 15 27 15h132q11 0 11 -7z" />
    <glyph glyph-name="circumflex" unicode="&#x2c6;" horiz-adv-x="443" 
d="M421 637q0 -7 -9 -7h-103q-13 0 -24 12l-63 70l-64 -70q-11 -12 -24 -12h-103q-9 0 -9 7q0 6 4 10l89 117q12 15 27 15h160q16 0 27 -15l88 -117q4 -4 4 -10z" />
    <glyph glyph-name="ring" unicode="&#x2da;" horiz-adv-x="443" 
d="M339 711q0 -49 -34 -83t-83 -34t-83 34t-34 83t34 83t83 34t83 -34t34 -83zM266 711q0 18 -13 31t-31 13t-31 -13t-13 -31t13 -31t31 -13t31 13t13 31z" />
    <glyph glyph-name="tilde" unicode="&#x2dc;" horiz-adv-x="497" 
d="M444 766v-20q0 -120 -122 -120q-40 0 -71 22l-42 29q-25 18 -41 18q-23 0 -23 -27v-19q0 -17 -15 -17h-71q-15 0 -15 17v19q0 119 123 119q41 0 70 -21l43 -28q28 -18 40 -18q23 0 23 27v19q0 16 16 16h70q15 0 15 -16z" />
    <glyph glyph-name="endash" unicode="&#x2013;" horiz-adv-x="394" 
d="M367 330v-79q0 -8 -6 -13.5t-14 -5.5h-300q-19 0 -19 19v79q0 8 5.5 14t13.5 6h300q8 0 14 -6t6 -14z" />
    <glyph glyph-name="emdash" unicode="&#x2014;" horiz-adv-x="525" 
d="M498 330v-79q0 -8 -6 -13.5t-14 -5.5h-431q-19 0 -19 19v79q0 8 5.5 14t13.5 6h431q8 0 14 -6t6 -14z" />
    <glyph glyph-name="quoteleft" unicode="&#x2018;" horiz-adv-x="253" 
d="M229 757v-5q0 -3 -1 -4l-54 -219q-4 -19 -20 -19h-119q-12 0 -12 11l2 8l75 219q7 19 19 19h101q9 0 9 -10z" />
    <glyph glyph-name="quoteright" unicode="&#x2019;" horiz-adv-x="253" 
d="M230 756l-2 -8l-75 -219q-7 -19 -19 -19h-101q-9 0 -9 10v4q0 4 1 5l54 219q4 19 20 19h119q12 0 12 -11z" />
    <glyph glyph-name="quotesinglbase" unicode="&#x201a;" horiz-adv-x="253" 
d="M231 153q0 -1 -2 -7l-96 -224q-9 -20 -19 -20h-88q-7 0 -12 4.5t-5 10.5q0 1 0.5 2t0.5 3l64 224q4 19 20 19h122q15 0 15 -12z" />
    <glyph glyph-name="quotedblleft" unicode="&#x201c;" horiz-adv-x="473" 
d="M449 757v-5q0 -3 -1 -4l-54 -219q-4 -19 -20 -19h-119q-12 0 -12 11l2 8l74 219q6 19 19 19h102q9 0 9 -10zM229 757v-5q0 -3 -1 -4l-54 -219q-4 -19 -20 -19h-119q-12 0 -12 11l2 8l75 219q7 19 19 19h101q9 0 9 -10z" />
    <glyph glyph-name="quotedblright" unicode="&#x201d;" horiz-adv-x="473" 
d="M230 756l-2 -8l-74 -219q-6 -19 -19 -19h-102q-9 0 -9 10v4q0 4 1 5l55 219q4 19 20 19h118q12 0 12 -11zM450 756l-2 -8l-75 -219q-7 -19 -19 -19h-101q-9 0 -9 10v4q0 4 1 5l54 219q4 19 20 19h119q12 0 12 -11z" />
    <glyph glyph-name="quotedblbase" unicode="&#x201e;" horiz-adv-x="473" 
d="M460 153q0 -1 -2 -7l-96 -224q-9 -20 -19 -20h-88q-7 0 -12 4.5t-5 10.5q0 1 0.5 2t0.5 3l64 224q4 19 20 19h122q15 0 15 -12zM231 153q0 -1 -2 -7l-96 -224q-9 -20 -19 -20h-88q-7 0 -12 4.5t-5 10.5q0 1 0.5 2t0.5 3l64 224q4 19 20 19h122q15 0 15 -12z" />
    <glyph glyph-name="dagger" unicode="&#x2020;" horiz-adv-x="440" 
d="M410 569v-104q0 -16 -19 -16h-92v-435q0 -20 -16 -20h-132q-16 0 -16 20v435h-86q-19 0 -19 16v104q0 15 19 15h86v164q0 19 17 19h131q16 0 16 -19v-164h92q19 0 19 -15z" />
    <glyph glyph-name="daggerdbl" unicode="&#x2021;" horiz-adv-x="440" 
d="M410 346v-103q0 -16 -19 -16h-92v-213q0 -20 -16 -20h-132q-16 0 -16 20v213h-86q-19 0 -19 16v103q0 15 19 15h86v88h-86q-19 0 -19 16v104q0 15 19 15h86v164q0 19 17 19h131q16 0 16 -19v-164h92q19 0 19 -15v-104q0 -16 -19 -16h-92v-88h92q19 0 19 -15z" />
    <glyph glyph-name="bullet" unicode="&#x2022;" horiz-adv-x="418" 
d="M376 367q0 -69 -49 -118t-118 -49t-118 49t-49 118t49 118t118 49t118 -49t49 -118z" />
    <glyph glyph-name="ellipsis" unicode="&#x2026;" horiz-adv-x="767" 
d="M717 146v-126q0 -8 -6 -14t-14 -6h-118q-8 0 -14 6t-6 14v126q0 8 6 13.5t14 5.5h118q8 0 14 -5.5t6 -13.5zM463 146v-126q0 -8 -6 -14t-14 -6h-118q-8 0 -14 6t-6 14v126q0 8 6 13.5t14 5.5h118q8 0 14 -5.5t6 -13.5zM209 146v-126q0 -8 -6 -14t-14 -6h-118q-8 0 -14 6
t-6 14v126q0 8 6 13.5t14 5.5h118q8 0 14 -5.5t6 -13.5z" />
    <glyph glyph-name="perthousand" unicode="&#x2030;" horiz-adv-x="1193" 
d="M1155 241v-75q0 -172 -148 -172t-148 172v75q0 172 148 172t148 -172zM801 241v-75q0 -172 -147 -172q-148 0 -148 172v75q0 172 148 172q147 0 147 -172zM698 735q0 -8 -4 -12l-416 -702q-11 -21 -23 -21h-103q-11 0 -11 11q0 4 3 10l416 702q12 20 25 20h103
q10 0 10 -8zM334 577v-75q0 -172 -148 -172t-148 172v75q0 171 148 171t148 -171zM1054 166v75q0 48 -11.5 66.5t-35.5 18.5t-36 -18.5t-12 -66.5v-75q0 -48 12 -66.5t36 -18.5t35.5 18.5t11.5 66.5zM701 166v75q0 48 -11.5 66.5t-35.5 18.5t-36 -18.5t-12 -66.5v-75
q0 -48 12 -66.5t36 -18.5t35.5 18.5t11.5 66.5zM233 502v75q0 48 -11.5 66.5t-35.5 18.5t-36 -18.5t-12 -66.5v-75q0 -48 12 -67t36 -19q23 0 35 19t12 67z" />
    <glyph glyph-name="guilsinglleft" unicode="&#x2039;" horiz-adv-x="413" 
d="M370 74q0 -11 -14 -11h-121q-19 0 -30 12l-160 185q-10 11 -10 26t10 26l160 185q11 12 30 12h121q14 0 14 -11q0 -4 -4 -9l-176 -203l176 -203q4 -5 4 -9z" />
    <glyph glyph-name="guilsinglright" unicode="&#x203a;" horiz-adv-x="413" 
d="M378 286q0 -15 -10 -26l-160 -185q-11 -12 -30 -12h-121q-14 0 -14 11q0 4 4 9l176 203l-176 203q-4 5 -4 9q0 11 14 11h121q19 0 30 -12l160 -185q10 -11 10 -26z" />
    <glyph glyph-name="fraction" unicode="&#x2044;" horiz-adv-x="370" 
d="M464 735q0 -8 -4 -12l-416 -702q-11 -21 -23 -21h-103q-11 0 -11 11q0 4 3 10l416 702q12 20 25 20h103q10 0 10 -8z" />
    <glyph glyph-name="Euro" unicode="&#x20ac;" 
d="M578 128v-97q0 -11 -5 -15.5t-17 -7.5q-51 -17 -139 -17q-119 0 -203.5 64t-99.5 203h-27q-8 0 -14 6t-6 14v44q0 8 6 14t14 6h24v62h-24q-8 0 -14 6t-6 14v44q0 8 6 14t14 6h27q15 136 100.5 199.5t202.5 63.5q88 0 139 -17q13 -3 17.5 -7.5t4.5 -14.5v-97
q0 -20 -19 -20h-3q-104 8 -138 8q-109 0 -130 -115h213q17 0 17 -15q0 -4 -1 -5l-12 -44q-6 -20 -20 -20h-201v-62h183q14 0 14 -12v-3l-15 -60q-2 -9 -14 -9h-164q21 -118 130 -118q34 0 138 8h3q19 0 19 -20z" />
    <glyph glyph-name="minus" unicode="&#x2212;" 
d="M558 436v-90q0 -16 -20 -16h-431q-20 0 -20 16v90q0 16 20 16h431q20 0 20 -16z" />
  </font>
</defs>
</svg>
